<svg xmlns="http://www.w3.org/2000/svg" viewBox="0 0 6580.13 5976"><defs><style>.cls-1{isolation:isolate;}.cls-2{fill:#fcf6f4;}.cls-3{fill:#f8e4db;}.cls-4{fill:#3b98ff;}.cls-5{fill:#f05929;}.cls-11,.cls-6{fill:#cb441f;}.cls-7{fill:#f68b68;}.cls-10,.cls-8{fill:none;stroke-linecap:round;}.cls-8{stroke:#3b98ff;stroke-linejoin:round;stroke-width:25px;}.cls-9{opacity:0.4;}.cls-10{stroke:#cb441f;stroke-miterlimit:10;stroke-width:75px;}.cls-11{opacity:0.56;mix-blend-mode:multiply;}</style></defs><title>Asset 10</title><g class="cls-1"><g id="Layer_2" data-name="Layer 2"><g id="Layer_1-2" data-name="Layer 1"><rect class="cls-2" width="6580.13" height="5976"/><path class="cls-3" d="M1742.65,1689.53c108.08,6.53,130.52-175.51,38.5-286.88-86.21-104.33,170.7-230-9.85-318-115.65-56.37-186.42,186.39-260.65,218.06s-310,12.24-337,98.34c-29.58,94.38-15.68,151,74.24,188,53.41,22,121.08-6.79,197.64-2.16C1578.48,1595,1580.54,1679.73,1742.65,1689.53Z"/><path class="cls-4" d="M1304.67,1265.11h-71.1a12.5,12.5,0,0,1,0-25h71.1a12.5,12.5,0,0,1,0,25Z"/><path class="cls-4" d="M1280.89,1375a12.5,12.5,0,0,1-8.84-21.34l50.28-50.28A12.5,12.5,0,0,1,1340,1321.1l-50.28,50.28A12.46,12.46,0,0,1,1280.89,1375Z"/><path class="cls-4" d="M1331.17,1205.46a12.46,12.46,0,0,1-8.84-3.66l-50.28-50.28a12.5,12.5,0,1,1,17.68-17.68l50.28,50.28a12.5,12.5,0,0,1-8.84,21.34Z"/><rect class="cls-3" x="1127.65" y="1806.33" width="762.01" height="25.86"/><path class="cls-5" d="M1657.17,1273.83l-17.38,17.38a74.72,74.72,0,0,0-20.67,39.19l-12.42,66.23a83.15,83.15,0,0,1-38.93,56l-8.69,5.21-9.4,5.64a143.58,143.58,0,0,0-48.22,47.69L1473.86,1556a113.17,113.17,0,0,0-15.54,42.29l-23.62,153.58a67.46,67.46,0,0,1-27.3,44.37,45.2,45.2,0,0,1-70.65-28.19l-8.83-45.65-19.17-99a58.69,58.69,0,0,1,57.61-69.83h33.54a16.3,16.3,0,0,1,0,32.59h-33.54q-1,0-2,.08a26.08,26.08,0,0,0-23.65,31l6.44,33.27,21.56,111.4a12.6,12.6,0,0,0,19.7,7.86,34.68,34.68,0,0,0,14-22.81l23.63-153.58a145.34,145.34,0,0,1,20-54.41l27.6-44.86a176.32,176.32,0,0,1,57.52-57.52c.56-.36,1.12-.69,1.69-1l18.09-10.85a50.61,50.61,0,0,0,23.67-34l12.41-66.22a107.13,107.13,0,0,1,29.66-56.23l17.38-17.38a29.18,29.18,0,0,0,0-41.22l-11.76-11.76a103,103,0,0,1-30.35-73.28v-95a16.3,16.3,0,0,1,32.59,0v95a70.59,70.59,0,0,0,20.81,50.23l11.76,11.76A61.8,61.8,0,0,1,1657.17,1273.83Z"/><path class="cls-5" d="M1753.71,1623.35l-28,144.66a45.17,45.17,0,0,1-70.65,28.19,67.46,67.46,0,0,1-27.3-44.37l-23.63-153.58a113.37,113.37,0,0,0-15.54-42.29l-27.6-44.85a143.49,143.49,0,0,0-29.76-34.5,141.94,141.94,0,0,0-18.47-13.19l-9.39-5.64-8.69-5.21a83.19,83.19,0,0,1-38.94-56l-12.41-66.23a74.73,74.73,0,0,0-20.68-39.19l-17.38-17.38a61.82,61.82,0,0,1,0-87.31l11.77-11.76a70.58,70.58,0,0,0,20.8-50.23v-95a16.3,16.3,0,0,1,32.59,0v95a103,103,0,0,1-30.34,73.28l-11.77,11.76a29.18,29.18,0,0,0,0,41.22l17.38,17.38c1,1,2.06,2.1,3.06,3.18a106.94,106.94,0,0,1,26.6,53l12.42,66.22a50.55,50.55,0,0,0,23.67,34l18.08,10.85,1.7,1a176.21,176.21,0,0,1,57.52,57.52l24.25,39.39,3.36,5.46a145.49,145.49,0,0,1,20,54.41L1660,1746.88a34.68,34.68,0,0,0,14,22.81,12.6,12.6,0,0,0,19.7-7.86l28-144.66a26.09,26.09,0,0,0-25.62-31h-33.53a16.3,16.3,0,0,1,0-32.59h33.53a58.69,58.69,0,0,1,57.62,69.83Z"/><path class="cls-6" d="M1753.71,1623.35l-28,144.66a45.17,45.17,0,0,1-70.65,28.19,67.46,67.46,0,0,1-27.3-44.37l-23.63-153.58a113.21,113.21,0,0,0-4-17l12.82-47.84,3.36,5.46a145.49,145.49,0,0,1,20,54.41L1660,1746.88a34.68,34.68,0,0,0,14,22.81,12.6,12.6,0,0,0,19.7-7.86l28-144.66a26.09,26.09,0,0,0-25.62-31h-33.53a16.3,16.3,0,0,1,0-32.59h33.53a58.69,58.69,0,0,1,57.62,69.83Z"/><path class="cls-7" d="M1373.15,1553.52l-8.75,32.67a26.08,26.08,0,0,0-23.65,31l6.44,33.27-19.27,71.93-19.17-99a58.69,58.69,0,0,1,57.61-69.83Z"/><path class="cls-7" d="M1428.33,1209.57a29.18,29.18,0,0,0,0,41.22l17.38,17.38c1,1,2.06,2.1,3.06,3.18l-11.08,41.36a74.67,74.67,0,0,0-15-21.49l-17.38-17.38a61.82,61.82,0,0,1,0-87.31l11.77-11.76a70.58,70.58,0,0,0,20.8-50.23v-95a16.3,16.3,0,0,1,32.59,0v95a103,103,0,0,1-30.34,73.28Z"/><path class="cls-3" d="M4815.7,1159.25c-47.62-33.6-86.84-18.47-110.92,35.87-23.61,53.29,14,81.23-15.09,203.36s-24.61,196.64,42.06,243.68c76.2,53.77,157.43,39.75,279-31.42s348.46,31.87,422.39-72.9c53.77-76.2,10.06-135.57-66.14-189.34-133.35-94.09-346.77,26.39-423-27.37S4901.42,1219.73,4815.7,1159.25Z"/><line class="cls-8" x1="4788.9" y1="1279.99" x2="4839.18" y2="1330.27"/><line class="cls-8" x1="4744.63" y1="1391.19" x2="4815.73" y2="1391.19"/><line class="cls-8" x1="4900.09" y1="1235.72" x2="4900.09" y2="1306.83"/><rect class="cls-3" x="4666.62" y="1806.33" width="762.01" height="25.86"/><rect class="cls-7" x="4963.23" y="1085.19" width="162" height="51.96"/><path class="cls-7" d="M5066.81,1137.15l-164.45,613.74a222.71,222.71,0,0,1-66.43-100.74,220.15,220.15,0,0,1-10.3-66.73c0-86.93,37.88-149.6,122.82-198.54,14.11-8.13,35.61-14.06,35.61-44.85V1137.15Z"/><path class="cls-7" d="M5262.83,1583.42a220.15,220.15,0,0,1-10.3,66.73,223.37,223.37,0,0,1-96.86,123,220.2,220.2,0,0,1-111.44,32.08c-1.69,0-3.38-.07-5.06-.13l-2.51-.11c-1.09,0-2.18-.11-3.26-.18l-1.76-.12-2.49-.19c-1.41-.12-2.82-.25-4.22-.39l-.75-.08c-.65-.06-1.3-.14-1.95-.21l-1.65-.2-2.16-.27-2.16-.3-1.93-.28-2.08-.32q-3.45-.55-6.85-1.22l-1.81-.36-2.26-.47-2.11-.46c-.7-.15-1.4-.31-2.09-.48-1.69-.39-3.36-.8-5-1.24-.59-.14-1.18-.3-1.76-.46l-2.26-.61-.24-.07c-.73-.2-1.46-.41-2.18-.63q-1.52-.43-3-.9c-.68-.2-1.36-.42-2-.63-1.35-.43-2.7-.88-4-1.33l-2-.69-1.12-.39-1.59-.58c-.76-.27-1.51-.55-2.26-.84q-6.9-2.61-13.57-5.65l-1.7-.77-2.39-1.14-2.15-1c-1.17-.58-2.33-1.16-3.49-1.76l-2.26-1.18c-1.07-.57-2.13-1.14-3.18-1.73l-1.53-.85c-.76-.42-1.52-.86-2.28-1.3l-1.52-.88c-.35-.21-.7-.41-1-.63-1.06-.63-2.12-1.27-3.16-1.91s-1.85-1.15-2.76-1.74-1.64-1.05-2.46-1.6c-1.1-.71-2.2-1.45-3.29-2.2l-1.22-.84c-1-.68-2-1.38-3-2.08q-1.24-.88-2.46-1.8c-1.13-.82-2.24-1.66-3.35-2.52-.4-.3-.81-.61-1.21-.93l-.09-.07c-.92-.72-1.84-1.44-2.75-2.18s-1.87-1.51-2.79-2.28h0l-1.28-1.08c-.78-.65-1.55-1.31-2.32-2a222.71,222.71,0,0,1-66.43-100.74,220.15,220.15,0,0,1-10.3-66.73c0-1.08,0-2.16,0-3.23.93-85.26,38.92-147,122.8-195.31,14.11-8.13,35.61-14.06,35.61-44.85V1137.15H5104.4V1340c0,30.79,21.5,36.72,35.61,44.85q8.12,4.68,15.66,9.53v185.78h107.14C5262.82,1581.27,5262.83,1582.33,5262.83,1583.42Z"/><rect class="cls-6" x="4984.06" y="1139.19" width="120.34" height="36"/><path class="cls-5" d="M5262.83,1583.42a220.15,220.15,0,0,1-10.3,66.73,223.37,223.37,0,0,1-96.86,123,220.2,220.2,0,0,1-111.44,32.08c-1.69,0-3.38-.07-5.06-.13l-2.51-.11c-1.09,0-2.18-.11-3.26-.18l-1.76-.12-2.49-.19c-1.41-.12-2.82-.25-4.22-.39l-.75-.08c-.65-.06-1.3-.14-1.95-.21l-1.65-.2-2.16-.27-2.16-.3-1.93-.28-2.08-.32q-3.45-.55-6.85-1.22l-1.81-.36-2.26-.47-2.11-.46c-.7-.15-1.4-.31-2.09-.48-1.69-.39-3.36-.8-5-1.24-.59-.14-1.18-.3-1.76-.46l-2.26-.61-.24-.07c-.73-.2-1.46-.41-2.18-.63q-1.52-.43-3-.9c-.68-.2-1.36-.42-2-.63-1.35-.43-2.7-.88-4-1.33l-2-.69-1.12-.39-1.59-.58c-.76-.27-1.51-.55-2.26-.84q-6.9-2.61-13.57-5.65l-1.7-.77-2.39-1.14-2.15-1c-1.17-.58-2.33-1.16-3.49-1.76l-2.26-1.18c-1.07-.57-2.13-1.14-3.18-1.73l-1.53-.85c-.76-.42-1.52-.86-2.28-1.3l-1.52-.88c-.35-.21-.7-.41-1-.63-1.06-.63-2.12-1.27-3.16-1.91s-1.85-1.15-2.76-1.74-1.64-1.05-2.46-1.6c-1.1-.71-2.2-1.45-3.29-2.2l-1.22-.84c-1-.68-2-1.38-3-2.08q-1.24-.88-2.46-1.8c-1.13-.82-2.24-1.66-3.35-2.52-.4-.3-.81-.61-1.21-.93l-.09-.07c-.92-.72-1.84-1.44-2.75-2.18s-1.87-1.51-2.79-2.28h0l-1.28-1.08c-.78-.65-1.55-1.31-2.32-2a222.71,222.71,0,0,1-66.43-100.74,220.15,220.15,0,0,1-10.3-66.73c0-1.08,0-2.16,0-3.23h437.16C5262.82,1581.27,5262.83,1582.33,5262.83,1583.42Z"/><rect class="cls-5" x="4915.63" y="1475.19" width="99" height="27"/><rect class="cls-7" x="4915.63" y="1601.19" width="99" height="27"/><rect class="cls-7" x="4915.63" y="1664.19" width="99" height="27"/><path class="cls-5" d="M5262.81,1580.19H5155.67V1394.4a302.08,302.08,0,0,1,33.24,24.52C5238.84,1461.58,5262.09,1513.73,5262.81,1580.19Z"/><path class="cls-6" d="M5262.83,1583.42a220.15,220.15,0,0,1-10.3,66.73,223.37,223.37,0,0,1-96.86,123V1580.19h107.14C5262.82,1581.27,5262.83,1582.33,5262.83,1583.42Z"/><rect class="cls-5" x="4915.63" y="1538.19" width="99" height="27"/><path class="cls-3" d="M2258.89,1472.68c-.22,122.31,84.93,247.69,329.42,248.13s466-171,466.33-348.62c.24-134-69.51-189.42-174.29-189.61-147.47-.27-85.89,285.24-179,285.07s-92.78-198.2-263.54-198.51S2259,1402.79,2258.89,1472.68Z"/><rect class="cls-3" x="2314.35" y="1806.33" width="762.01" height="25.86"/><path class="cls-7" d="M2741.36,1134.08v39h-48.62v626.24a78.34,78.34,0,0,1-29.75,5.85q-3,0-6-.23c-1.33-.1-2.65-.23-4-.4s-2.61-.37-3.89-.6a78.38,78.38,0,0,1-64.47-75.44c0-.67,0-1.35,0-2v-.31l.92-223,.08-18.89V1134.08Z"/><rect class="cls-7" x="2551.41" y="1087.25" width="226.3" height="46.82"/><rect class="cls-6" x="2585.28" y="1134.08" width="156.07" height="39.02"/><line class="cls-8" x1="2414.68" y1="1254.26" x2="2485.79" y2="1254.26"/><line class="cls-8" x1="2462.01" y1="1364.19" x2="2512.28" y2="1313.91"/><line class="cls-8" x1="2462.01" y1="1144.33" x2="2512.28" y2="1194.61"/><path class="cls-5" d="M2692.73,1337.19v462.13a77.95,77.95,0,0,1-29.75,5.87q-3,0-6-.23c-1.33-.1-2.65-.24-4-.4s-2.61-.37-3.89-.6a78.63,78.63,0,0,1-64.47-75.44c0-.67,0-1.35,0-2v-.31l.92-223,.08-20.17V1337.19Z"/><path class="cls-6" d="M2741.36,1337.19v389.34a78.7,78.7,0,0,1-48.62,72.81V1337.19Z"/><rect class="cls-5" x="2692.73" y="1173.1" width="48.62" height="164.09"/><rect class="cls-7" x="2585.61" y="1435.65" width="71.16" height="26.26"/><polygon class="cls-7" points="2656.76 1496.93 2656.76 1523.2 2585.53 1523.2 2585.61 1503.04 2585.61 1496.93 2656.76 1496.93"/><rect class="cls-7" x="2585.61" y="1374.37" width="71.16" height="26.27"/><path class="cls-3" d="M3531.11,1138c-59.3-32.8-102.7-10.34-123.64,55.52-20.53,64.58,26.5,92.1,8.34,236.93s-3.52,230.37,79.49,276.29c94.88,52.48,187,26,318.43-71.67s406.74-7.33,478.9-137.79c52.48-94.88-5.56-158-100.43-210.43-166-91.84-397.41,74.45-492.28,22S3637.85,1197,3531.11,1138Z"/><path class="cls-6" d="M3682.9,1767.14a38,38,0,1,1-3.17-15.22A38,38,0,0,1,3682.9,1767.14Z"/><rect class="cls-7" x="3566.92" y="1705.77" width="132.55" height="49.71"/><rect class="cls-7" x="3566.92" y="1448.96" width="231.96" height="66.27"/><rect class="cls-7" x="3566.92" y="1349.54" width="231.96" height="66.27"/><line class="cls-8" x1="3441.72" y1="1221.45" x2="3492" y2="1271.73"/><line class="cls-8" x1="3397.45" y1="1332.65" x2="3468.56" y2="1332.65"/><line class="cls-8" x1="3552.92" y1="1177.19" x2="3552.92" y2="1248.29"/><rect class="cls-3" x="3463.23" y="1806.33" width="762.01" height="25.86"/><rect class="cls-7" x="3566.92" y="1548.37" width="231.96" height="66.27"/><polygon class="cls-6" points="4126.11 1448.96 4108.35 1515.23 3908.61 1515.23 3926.36 1448.96 4126.11 1448.96"/><polygon class="cls-6" points="4099.48 1548.37 4081.72 1614.64 3881.98 1614.64 3899.74 1548.37 4099.48 1548.37"/><polygon class="cls-6" points="4153.35 1349.54 4135.31 1415.82 3935.24 1415.82 3953 1349.54 4153.35 1349.54"/><polygon class="cls-5" points="3699.47 1705.77 3793.09 1705.77 3779.77 1755.48 3699.47 1755.48 3699.47 1705.77"/><polygon class="cls-5" points="3699.47 1548.37 3835.26 1548.37 3817.51 1614.64 3699.47 1614.64 3699.47 1548.37"/><polygon class="cls-5" points="3699.47 1448.96 3861.9 1448.96 3844.15 1515.23 3699.47 1515.23 3699.47 1448.96"/><polygon class="cls-5" points="3888.54 1349.55 3870.78 1415.82 3699.47 1415.82 3699.47 1349.55 3888.54 1349.55"/><path class="cls-5" d="M3857.56,1705.77l-13.32,49.71h-26.93c-.4-1.22-.85-2.39-1.34-3.55a38.06,38.06,0,0,0-33.48-22.79l-1.4,0a38,38,0,0,0-34.87,22.82,36.55,36.55,0,0,0-1.34,3.55h-45.41v-49.71Z"/><polygon class="cls-5" points="3899.74 1548.37 3881.98 1614.64 3699.47 1614.64 3699.47 1548.37 3899.74 1548.37"/><polygon class="cls-5" points="3926.36 1448.96 3908.61 1515.23 3699.47 1515.23 3699.47 1448.96 3926.36 1448.96"/><polygon class="cls-5" points="3953 1349.55 3935.25 1415.82 3699.47 1415.82 3699.47 1349.55 3953 1349.55"/><path class="cls-7" d="M3819.13,1767.14a38,38,0,1,1-74.26-11.66,36.55,36.55,0,0,1,1.34-3.55,38,38,0,0,1,34.87-22.82l1.4,0a38.06,38.06,0,0,1,33.48,22.79c.5,1.16.95,2.34,1.34,3.55A38.13,38.13,0,0,1,3819.13,1767.14Z"/><path class="cls-6" d="M4102.5,1537.4l-38.08,142.11c-.34,1.27-.71,2.53-1.1,3.78l18.4-68.66,17.76-66.27,2.95-11Z"/><path class="cls-7" d="M4247.73,1193.4l-.2,49.71-173-.2h-.2a52.87,52.87,0,0,0-50.94,38.93l-18.09,67.72h-51.51l21.64-80.78a102.65,102.65,0,0,1,98.9-75.58h.4Z"/><path class="cls-7" d="M3989.42,1767.14a37.82,37.82,0,1,1-.19-3.89v0C3989.35,1764.55,3989.42,1765.84,3989.42,1767.14Z"/><path class="cls-6" d="M4276.09,1193.4l-.2,49.71-53.31-.2h-.2a52.87,52.87,0,0,0-50.94,38.93l-18.09,67.72-13.21,48.52-4.83,17.76-8.65,31.77-.17,0-.38,1.42-17.76,66.27-5.93,22.16-2.95,11-17.76,66.27-18.4,68.66a102.64,102.64,0,0,1-97.91,72.18H3844.24l13.32-49.71h107.85a52.88,52.88,0,0,0,50.19-36.42l14.65-54.7,17.76-66.27,8.88-33.14,17.76-66.27,8.88-33.14,17.76-66.27h.55l21.64-80.78a102.65,102.65,0,0,1,98.9-75.58h.41Z"/><path class="cls-3" d="M1519.06,4305.94c-104.51-40-216.28,65.84-208.11,214.94,7.65,139.68-254.54,92.37-187,270.51,41.5,109.47,269.44-40.58,350.61-21.35s248.89,166.82,340.61,125.07c93.05-42.36,106.28-147.25,53.69-201.95-41.39-43-104.86-68.68-165.68-119.52C1597.54,4485.36,1615.43,4342.86,1519.06,4305.94Z"/><line class="cls-8" x1="1109.91" y1="4567.23" x2="1160.19" y2="4617.5"/><line class="cls-8" x1="1065.64" y1="4678.42" x2="1136.74" y2="4678.42"/><line class="cls-8" x1="1221.1" y1="4522.96" x2="1221.1" y2="4594.06"/><rect class="cls-3" x="1143.75" y="4936.96" width="762.01" height="25.86"/><path class="cls-7" d="M1679.46,4736.08a16.79,16.79,0,0,1-16-22l84.9-259.93H1528.09a67.2,67.2,0,0,0-64.11,48q-.16.53-.35,1.06l-70.48,191.7a16.78,16.78,0,0,1-31.5-11.58l70.3-191.2a100.39,100.39,0,0,1,96.15-71.51h231.28l20.23-61.93a67.83,67.83,0,0,1,64.91-48.82h56.33a50.76,50.76,0,0,1,48.61,65.4l-6.63,26.48c-.08.31-.16.62-.26.93-4.65,14.87-15.08,28.26-29.37,37.72a82.43,82.43,0,0,1-44.91,13.79h-84.56l-88.31,270.35A16.79,16.79,0,0,1,1679.46,4736.08Zm115.22-315.49h73.6c18.32,0,37.1-12.33,42.12-27.56l6.61-26.38c.08-.31.16-.62.26-.93a17.2,17.2,0,0,0-16.42-22.33h-56.33a34.14,34.14,0,0,0-32.72,24.74c-.06.22-.13.43-.19.64Z"/><path class="cls-6" d="M1704.28,4697.51l-2.73,9.51-3.38,11.74-6.74,23.48-3.37,11.74-3.37,11.74L1678,4789.2l-3.37,11.74-11.71,40.82-14.4,50.18a59,59,0,0,1-56.74,42.75H1501V4662h176.59A27.81,27.81,0,0,1,1704.28,4697.51Z"/><path class="cls-5" d="M1580,4720.39v134.06a80.23,80.23,0,0,1-79,80.22h-1.25a80.25,80.25,0,0,1-80.25-80.24v-5.63c0-29.18-15.77-52.83-35.22-52.83s-35.22,23.65-35.22,52.83v5.63a80.23,80.23,0,0,1-73.92,80c-2.09.17-4.2.25-6.33.25a80.16,80.16,0,0,1-80.25-80.24V4720.39a58.38,58.38,0,0,1,58.37-58.37h274.69a58.39,58.39,0,0,1,58.37,58.37Z"/><path class="cls-7" d="M1317.2,4662l-72.11,269.12a80.28,80.28,0,0,1-56.57-76.69V4720.39a58.38,58.38,0,0,1,58.37-58.37Z"/><rect class="cls-7" x="1443.81" y="4731.3" width="70.44" height="23.48" transform="translate(-3485.2 4944.08) rotate(-75)"/><rect class="cls-7" x="1488.55" y="4755.82" width="70.44" height="23.48" transform="translate(-3475.72 5005.47) rotate(-75)"/><path class="cls-3" d="M4668.8,4663.46c-.76,89.6,102.18,130.06,250.9,137.15s418.1-43.88,500-190.58S5437,4313.11,5375,4247.21c-66.38-70.55-182-55.86-225.82-12.4-66.07,65.54-49.39,241.33-104,300.73C4953.09,4635.7,4670.35,4481,4668.8,4663.46Z"/><line class="cls-8" x1="4892.55" y1="4179.52" x2="4942.83" y2="4229.79"/><line class="cls-8" x1="4848.28" y1="4290.71" x2="4919.38" y2="4290.71"/><line class="cls-8" x1="5003.74" y1="4135.25" x2="5003.74" y2="4206.35"/><rect class="cls-3" x="4734.79" y="4936.96" width="762.01" height="25.86"/><polygon class="cls-6" points="5385.64 4822.28 5367.27 4840.28 5313.87 4786.88 5311.39 4789.36 5261.79 4838.96 5244.82 4821.98 5294.42 4772.39 5301.87 4764.93 5301.87 4593.82 5325.87 4593.82 5325.87 4759.99 5336.86 4771.45 5385.64 4822.28"/><rect class="cls-7" x="5301.87" y="4584.81" width="24" height="90"/><rect class="cls-7" x="5180.45" y="4848.64" width="85.35" height="24.01" transform="translate(-1907.17 5116.96) rotate(-45)"/><polygon class="cls-7" points="5443.44 4882.51 5426.3 4899.31 5367.27 4840.28 5385.64 4822.28 5443.44 4882.51"/><circle class="cls-5" cx="5313.87" cy="4596.66" r="50.92"/><circle class="cls-5" cx="5313.63" cy="4770.97" r="47.84"/><circle class="cls-5" cx="5196.63" cy="4887.97" r="47.84"/><circle class="cls-5" cx="5433.94" cy="4887.97" r="47.84"/><circle class="cls-7" cx="5324.29" cy="4757.24" r="13.5"/><circle class="cls-7" cx="5441.29" cy="4874.24" r="13.5"/><circle class="cls-7" cx="5207.29" cy="4874.24" r="13.5"/><circle class="cls-7" cx="5324.29" cy="4577.24" r="13.5"/><polygon class="cls-6" points="5065.33 4365.97 5083.33 4384.34 5029.93 4437.73 5032.41 4440.22 5082.01 4489.81 5065.03 4506.78 5015.44 4457.19 5007.98 4449.73 4836.87 4449.73 4836.87 4425.73 5003.04 4425.73 5014.5 4414.74 5065.33 4365.97"/><rect class="cls-7" x="4827.87" y="4425.73" width="90" height="24"/><rect class="cls-7" x="5091.69" y="4485.8" width="24.01" height="85.35" transform="translate(-1707.28 4935.22) rotate(-45)"/><polygon class="cls-7" points="5125.56 4308.16 5142.36 4325.31 5083.33 4384.34 5065.33 4365.97 5125.56 4308.16"/><circle class="cls-5" cx="4839.71" cy="4437.74" r="50.92"/><circle class="cls-5" cx="5014.02" cy="4437.97" r="47.84"/><circle class="cls-5" cx="5131.02" cy="4554.97" r="47.84"/><circle class="cls-5" cx="5131.02" cy="4317.66" r="47.84"/><circle class="cls-7" cx="5000.29" cy="4427.31" r="13.5"/><circle class="cls-7" cx="4820.29" cy="4427.31" r="13.5"/><circle class="cls-7" cx="5117.29" cy="4310.31" r="13.5"/><circle class="cls-7" cx="5117.29" cy="4544.31" r="13.5"/><polyline class="cls-6" points="4999.85 4888.21 5002.33 4885.73 5051.93 4836.13 5034.95 4819.16 4985.36 4868.76 4977.9 4876.21 4806.79 4876.21 4806.79 4900.21 4972.96 4900.21 4984.42 4911.2"/><rect class="cls-6" x="5030.94" y="4785.47" width="85.35" height="24.01" transform="translate(-1906.3 4992.73) rotate(-45)"/><polyline class="cls-6" points="4985.36 4634.76 4977.9 4642.21 4806.79 4642.21 4806.79 4666.21 4972.96 4666.21 4984.42 4677.2 5035.25 4725.98 5053.25 4707.61 4999.85 4654.21 5002.33 4651.73"/><polygon class="cls-6" points="5095.48 4783.78 5112.28 4766.64 5053.25 4707.61 5035.25 4725.98 5095.48 4783.78"/><circle class="cls-5" cx="5100.94" cy="4774.29" r="47.84"/><circle class="cls-7" cx="5087.21" cy="4781.63" r="13.5"/><polyline class="cls-6" points="4775.73 4888.21 4773.24 4885.73 4723.65 4836.13 4740.63 4819.16 4790.22 4868.76 4797.68 4876.21 4968.78 4876.21 4968.78 4900.21 4802.61 4900.21 4791.15 4911.2"/><polyline class="cls-6" points="4790.22 4634.76 4797.68 4642.21 4968.78 4642.21 4968.78 4666.21 4802.61 4666.21 4791.15 4677.2 4740.32 4725.98 4722.32 4707.61 4775.73 4654.21 4773.24 4651.73"/><rect class="cls-6" x="4689.96" y="4754.8" width="24.01" height="85.35" transform="translate(-2015.15 4729.94) rotate(-45)"/><circle class="cls-5" cx="4791.63" cy="4887.97" r="47.84"/><circle class="cls-7" cx="4805.37" cy="4898.63" r="13.5"/><polygon class="cls-6" points="4680.1 4783.78 4663.3 4766.64 4722.32 4707.61 4740.32 4725.98 4680.1 4783.78"/><circle class="cls-5" cx="4791.63" cy="4653.97" r="47.84"/><circle class="cls-5" cx="4674.63" cy="4774.29" r="47.84"/><circle class="cls-7" cx="4805.37" cy="4664.63" r="13.5"/><circle class="cls-7" cx="4688.37" cy="4781.63" r="13.5"/><circle class="cls-5" cx="4983.94" cy="4887.97" r="47.84"/><circle class="cls-7" cx="4970.21" cy="4898.63" r="13.5"/><circle class="cls-5" cx="4983.94" cy="4653.97" r="47.84"/><circle class="cls-7" cx="4970.21" cy="4664.63" r="13.5"/><path class="cls-3" d="M3445.15,4730.48c-83.06-83.06-15.1-151,7.55-173.68s158.58-7.55,211.44-60.41,75.51-196.33,135.92-256.74,105.72-60.41,158.58,0,68,271.85,135.92,339.81,120.82,30.21,181.23,90.62,15.1,135.92-30.21,181.23c-75.51,75.51-219,0-377.57,0S3550.87,4836.2,3445.15,4730.48Z"/><path class="cls-5" d="M3918,4354.67v108H3778.16A67.13,67.13,0,0,0,3765,4464V4354.67Z"/><path class="cls-5" d="M3900,4462.67v32.14H3765V4464a67.13,67.13,0,0,1,13.16-1.29Z"/><rect class="cls-3" x="3488.99" y="4936.96" width="762.01" height="25.86"/><line class="cls-8" x1="3549" y1="4559.74" x2="3620.1" y2="4559.74"/><line class="cls-8" x1="3596.32" y1="4669.67" x2="3646.6" y2="4619.39"/><line class="cls-8" x1="3596.32" y1="4449.81" x2="3646.6" y2="4500.09"/><path class="cls-7" d="M3778.16,4462.67H3849v167.14H3711v-100a67.09,67.09,0,0,1,67.16-67.16Z"/><rect class="cls-5" x="3849" y="4462.67" width="30" height="167.14"/><path class="cls-5" d="M4112.66,4214.78l-11.32,27.78-151.95-61.91A51.11,51.11,0,0,0,3879,4228v126.69h-30V4228a81.11,81.11,0,0,1,111.71-75.11Z"/><rect class="cls-7" x="3879" y="4462.67" width="39" height="167.14"/><path class="cls-5" d="M3918,4629.81v309.86H3757a46.05,46.05,0,0,1-46.05-46V4629.81h138v81h30v-81Z"/><rect class="cls-6" x="3849" y="4629.81" width="30" height="81"/><rect class="cls-7" x="3751" y="4647.81" width="63" height="27"/><rect class="cls-7" x="3751" y="4710.81" width="63" height="27"/><rect class="cls-7" x="3751" y="4773.81" width="63" height="27"/><rect class="cls-5" x="3751" y="4584.81" width="63" height="27"/><path class="cls-6" d="M3954,4354.67V4464a67.13,67.13,0,0,0-13.16-1.29H3918v-108Z"/><path class="cls-5" d="M4008,4529.83v100h-90V4462.67h22.84a67.09,67.09,0,0,1,67.16,67.16Z"/><path class="cls-6" d="M4008,4629.81v263.81a46.05,46.05,0,0,1-46.05,46H3918V4629.81Z"/><path class="cls-3" d="M2398.72,4290.1c-51.93-36.64-94.69-20.14-120.94,39.12-25.75,58.11,15.29,88.57-16.45,221.74s-26.84,214.41,45.86,265.71c83.09,58.63,171.66,43.34,304.2-34.26s380,34.75,460.57-79.49c58.63-83.09,11-147.83-72.12-206.45-145.4-102.6-378.11,28.78-461.2-29.85S2492.2,4356.05,2398.72,4290.1Z"/><path class="cls-6" d="M2822.3,4404.81v487.35c0,24.1-20.71,43.65-46.24,43.65H2523.18a47.6,47.6,0,0,1-31.45-11.66,42.43,42.43,0,0,1-14.79-32V4404.81c0-24.1,20.71-43.65,46.24-43.65h252.88C2801.6,4361.17,2822.3,4380.71,2822.3,4404.81Z"/><rect class="cls-3" x="2237.3" y="4936.96" width="762.01" height="25.86"/><line class="cls-8" x1="2273.3" y1="4514.74" x2="2344.41" y2="4514.74"/><line class="cls-8" x1="2320.62" y1="4624.67" x2="2370.9" y2="4574.39"/><line class="cls-8" x1="2320.62" y1="4404.81" x2="2370.9" y2="4455.09"/><path class="cls-5" d="M2772.65,4404.81v487.35c0,24.1-20.71,43.65-46.24,43.65H2473.53a47.6,47.6,0,0,1-31.45-11.66,42.43,42.43,0,0,1-14.79-32V4404.81c0-24.1,20.71-43.65,46.24-43.65H2726.4C2751.94,4361.17,2772.65,4380.71,2772.65,4404.81Z"/><circle class="cls-7" cx="2505.62" cy="4661.46" r="31.65" transform="translate(-2562.28 3137.05) rotate(-45)"/><circle class="cls-7" cx="2694.32" cy="4661.46" r="31.65" transform="translate(-2507.01 3270.48) rotate(-45)"/><circle class="cls-7" cx="2599.97" cy="4661.46" r="31.65" transform="translate(-2534.64 3203.77) rotate(-45)"/><circle class="cls-7" cx="2505.62" cy="4757.98" r="31.65" transform="translate(-2630.52 3165.32) rotate(-45)"/><circle class="cls-7" cx="2694.32" cy="4757.98" r="31.65" transform="translate(-2575.25 3298.75) rotate(-45)"/><circle class="cls-7" cx="2599.97" cy="4757.98" r="31.65" transform="translate(-2602.89 3232.03) rotate(-45)"/><circle class="cls-7" cx="2505.62" cy="4854.49" r="31.65" transform="translate(-2698.77 3193.59) rotate(-45)"/><circle class="cls-7" cx="2694.32" cy="4854.49" r="31.65" transform="translate(-2643.5 3327.02) rotate(-45)"/><circle class="cls-7" cx="2599.97" cy="4854.49" r="31.65" transform="translate(-2671.13 3260.3) rotate(-45)"/><rect class="cls-7" x="2473.96" y="4421.12" width="252" height="90"/><polygon class="cls-6" points="2725.96 4421.13 2725.96 4511.13 2647.4 4511.13 2671.52 4421.13 2725.96 4421.13"/><path class="cls-3" d="M2270.36,3675.73c-80.52-80.52-14.64-146.4,7.32-168.36s153.72-7.32,205-58.56,73.2-190.32,131.76-248.89,102.48-58.56,153.72,0,65.88,263.53,131.76,329.41,117.12,29.28,175.68,87.84,14.64,131.76-29.28,175.68c-73.2,73.2-212.29,0-366,0S2372.85,3778.21,2270.36,3675.73Z"/><line class="cls-8" x1="2363.25" y1="3349.53" x2="2413.53" y2="3399.81"/><line class="cls-8" x1="2318.98" y1="3460.73" x2="2390.08" y2="3460.73"/><line class="cls-8" x1="2474.44" y1="3305.26" x2="2474.44" y2="3376.37"/><rect class="cls-3" x="2243.43" y="3892.73" width="762.01" height="25.86"/><path class="cls-7" d="M2888.44,3649.73c0,122.36-90.42,223.59-208.1,240.51a245,245,0,0,1-34.9,2.49c-134.21,0-243-108.79-243-243s108.79-243,243-243a243,243,0,0,1,243,243Z"/><path class="cls-5" d="M2785.6,3497.41l-41.14,153.53a33.34,33.34,0,0,0-14.79,8.61L2682.26,3707a33.52,33.52,0,0,0,32.15,56.14l-23.76,88.67a207.2,207.2,0,0,1-45.21,5c-114.32,0-207-92.68-207-207s92.68-207,207-207A206.22,206.22,0,0,1,2785.6,3497.41Z"/><rect class="cls-7" x="2600.44" y="3521.7" width="90" height="45" rx="22.5" ry="22.5"/><circle class="cls-7" cx="2573.44" cy="3676.73" r="54"/><path class="cls-6" d="M2852.44,3649.73c0,98.79-69.21,181.42-161.79,202l23.76-88.67a33.35,33.35,0,0,0,15.26-8.73l47.41-47.41a33.52,33.52,0,0,0-32.62-56l41.14-153.53A206.43,206.43,0,0,1,2852.44,3649.73Z"/><path class="cls-5" d="M2888.44,3649.73c0,122.36-90.42,223.59-208.1,240.51l10.31-38.47c92.58-20.62,161.79-103.25,161.79-202a206.44,206.44,0,0,0-66.84-152.32l10.31-38.5A242.55,242.55,0,0,1,2888.44,3649.73Z"/><path class="cls-7" d="M2744.46,3650.94l-30.05,112.16a33.52,33.52,0,0,1-32.15-56.14l47.41-47.41A33.34,33.34,0,0,1,2744.46,3650.94Z"/><path class="cls-5" d="M2786.9,3683.25a33.46,33.46,0,0,1-9.82,23.71l-47.41,47.41a33.35,33.35,0,0,1-15.26,8.73l30.05-112.16a33.52,33.52,0,0,1,42.44,32.31Z"/><path class="cls-3" d="M1022.66,3668c-.94,110.3,125.79,160.12,308.88,168.84s514.71-54,615.6-234.62,21.22-365.53-55.13-446.67c-81.72-86.85-224.07-68.77-278-15.26-81.34,80.68-60.8,297.09-128,370.23C1372.64,3633.78,1024.57,3443.38,1022.66,3668Z"/><rect class="cls-6" x="1475.94" y="3757.75" width="154.2" height="40.58"/><rect class="cls-6" x="1630.14" y="3757.75" width="32.46" height="40.58"/><rect class="cls-3" x="1187.64" y="3892.73" width="762.01" height="25.86"/><path class="cls-6" d="M1630.14,3798.33h32.46v29.83a62.77,62.77,0,0,1-62.77,62.77H1362.32v-32.46h234a33.78,33.78,0,0,0,33.78-33.78Z"/><path class="cls-7" d="M1475.94,3798.33h154.2v26.36a33.78,33.78,0,0,1-33.78,33.78h-154.2a33.78,33.78,0,0,0,33.78-33.78Z"/><rect class="cls-5" x="1329.85" y="3858.47" width="194.78" height="32.46"/><line class="cls-8" x1="1093.92" y1="3206.86" x2="1144.2" y2="3257.13"/><line class="cls-8" x1="1049.65" y1="3318.05" x2="1120.75" y2="3318.05"/><line class="cls-8" x1="1205.11" y1="3162.59" x2="1205.11" y2="3233.69"/><path class="cls-5" d="M1846.37,3357.34v353c0,28-24.08,50.75-53.77,50.75H1229.42a55.35,55.35,0,0,1-36.57-13.55,49.34,49.34,0,0,1-17.2-37.2v-353c0-28,24.08-50.75,53.77-50.75H1792.6C1822.3,3306.59,1846.37,3329.31,1846.37,3357.34Z"/><path class="cls-6" d="M1898,3342.06V3725.6c0,19.59-16.84,35.48-37.59,35.48H1792.6c29.7,0,53.77-22.72,53.77-50.75v-353c0-28-24.08-50.75-53.77-50.75h67.78C1881.13,3306.59,1898,3322.48,1898,3342.06Z"/><rect class="cls-7" x="1222.95" y="3355.28" width="576.13" height="337.54"/><circle class="cls-7" cx="1511.01" cy="3725.29" r="16.23"/><path class="cls-3" d="M5443.45,3792c68.94,19.33,108.11-14.31,113.65-87.11,5.43-71.39-49.62-88.27-66.12-241.61s-52.33-237.75-148.85-264.8c-110.31-30.92-198.57,18.69-310,151s-416.47,106.33-459,258c-30.92,110.31,44.08,161.07,154.38,192,193,54.11,390.57-173.08,500.88-142.15S5319.35,3757.22,5443.45,3792Z"/><rect class="cls-3" x="4693.26" y="3892.73" width="762.01" height="25.86"/><line class="cls-8" x1="4576.48" y1="3475.22" x2="4647.58" y2="3475.22"/><line class="cls-8" x1="4623.8" y1="3585.15" x2="4674.08" y2="3534.87"/><line class="cls-8" x1="4623.8" y1="3365.29" x2="4674.08" y2="3415.57"/><path class="cls-7" d="M5334.55,3380v444.62c0,18.59-16,33.67-35.67,33.67h-140.3a36.73,36.73,0,0,1-24.26-9,32.77,32.77,0,0,1-11.41-24.68V3380c0-18.38,15.61-33.32,35-33.66h16.83v8.5a16.17,16.17,0,0,0,16.18,16.17h75.65a16.17,16.17,0,0,0,16.17-16.17v-8.5h16.15C5318.58,3346.32,5334.55,3361.4,5334.55,3380Z"/><path class="cls-7" d="M5301.35,3346.39v511.8h-.11l-1.09.05-1.27,0h-140.3a36.73,36.73,0,0,1-24.26-9,32.76,32.76,0,0,1-11.41-24.68V3380c0-18.38,15.61-33.31,35-33.66h16.83v.08h108v-.08h16.15l1.27,0,1.09.05Z"/><path class="cls-7" d="M5174.73,3346.32v.15H5157.9v-.14h16.83Z"/><path class="cls-5" d="M5196.76,3377.68h63.92a22,22,0,0,0,22-22c0-.28,0-.56,0-.84v-1a7.48,7.48,0,0,1,7.47-7.48h8.68l1.27,0,1.09.05h.11V3315H5137.79c-25.53,0-46.24,19.55-46.24,43.65V3846a42.4,42.4,0,0,0,14.79,32,47.59,47.59,0,0,0,31.45,11.66h163.56v-31.41h-.11l-1.09.05-1.27,0h-140.3a36.73,36.73,0,0,1-24.26-9,32.76,32.76,0,0,1-11.41-24.68V3380c0-18.38,15.61-33.31,35-33.66h9.36a7.47,7.47,0,0,1,7.47,7.48v1.86A22,22,0,0,0,5196.76,3377.68Z"/><rect class="cls-7" x="5122.91" y="3412.39" width="0.15" height="31.51"/><path class="cls-5" d="M4817.34,3315c-25.54,0-46.25,19.54-46.25,43.64V3846a42.46,42.46,0,0,0,14.79,32,47.64,47.64,0,0,0,31.46,11.65h154V3315Z"/><rect class="cls-7" x="4802.43" y="3394.6" width="168.96" height="378"/><circle class="cls-7" cx="4908.89" cy="3832.67" r="29.94"/><rect class="cls-5" x="4971.39" y="3394.6" width="42.73" height="378"/><path class="cls-6" d="M5045.46,3358.6V3846c0,24.1-20.71,43.64-46.25,43.64h-27.82v-117h42.73v-378h-42.73V3315h27.82C5024.75,3315,5045.46,3334.5,5045.46,3358.6Z"/><path class="cls-6" d="M5365.91,3358.6V3846c0,24.11-20.7,43.65-46.24,43.65h-18.32v-31.41l.27,0c.47,0,.93-.07,1.39-.12l.15,0c.47,0,.95-.12,1.42-.19l.61-.1,1.26-.23c.56-.12,1.11-.24,1.65-.38s1.05-.27,1.57-.43l.18-.05c.49-.15,1-.31,1.45-.48s.79-.28,1.18-.44l.57-.22,1.3-.56h0c.49-.22,1-.46,1.47-.71l0,0c1-.49,1.88-1,2.78-1.59l.16-.1c.36-.24.72-.47,1.08-.72l.32-.22,1-.75c.55-.42,1.09-.85,1.62-1.31.31-.26.61-.52.9-.8s.63-.59.94-.89a35,35,0,0,0,2.76-3.09c.13-.16.27-.33.39-.5.54-.7,1.05-1.43,1.54-2.18.26-.41.51-.82.76-1.24.41-.71.8-1.44,1.16-2.19.11-.21.21-.43.31-.64s.24-.53.35-.8.17-.41.26-.61l.33-.87.27-.75a31,31,0,0,0,.88-3.07c.06-.26.12-.52.17-.79.16-.72.28-1.46.38-2.21,0-.18.05-.37.07-.55s0-.29,0-.44c0-.42.08-.83.1-1.25,0-.11,0-.21,0-.32s0-.48,0-.72,0-.67,0-1V3380c0-.34,0-.68,0-1s0-.48,0-.72,0-.21,0-.32c0-.42-.06-.84-.1-1.25,0-.14,0-.29,0-.44s0-.36-.07-.55c-.1-.75-.22-1.48-.38-2.21,0-.27-.11-.53-.17-.79a32.09,32.09,0,0,0-2.68-7.3c-.12-.25-.25-.49-.38-.73l-.45-.81c-.53-.91-1.1-1.8-1.71-2.65-.17-.24-.34-.47-.52-.7l-.51-.66c-.16-.22-.34-.43-.52-.64s-.35-.42-.54-.63c-.36-.42-.73-.82-1.12-1.22-.19-.2-.38-.4-.58-.59s-.65-.63-1-.94-.57-.51-.86-.76l-.09-.07-.55-.46a34.19,34.19,0,0,0-3.6-2.59c-.41-.26-.82-.51-1.24-.75l-.11-.06c-.43-.24-.86-.48-1.29-.7-.88-.46-1.79-.88-2.73-1.27l-.49-.2-.28-.11c-.39-.16-.78-.3-1.18-.44s-1-.33-1.45-.48l-.18-.05c-.52-.16-1-.3-1.57-.43s-1.09-.26-1.65-.38l-1.26-.23-.61-.1c-.47-.07-1-.14-1.42-.19l-.15,0c-.46,0-.92-.09-1.39-.12l-.27,0V3315h18.32C5345.21,3315,5365.91,3334.5,5365.91,3358.6Z"/><path class="cls-5" d="M5334.55,3380V3824.6c0,.34,0,.68,0,1s0,.48,0,.72,0,.21,0,.32c0,.42-.06.83-.1,1.25,0,.15,0,.29,0,.44s0,.37-.07.55c-.1.75-.22,1.49-.38,2.21,0,.27-.11.53-.17.79a31,31,0,0,1-.88,3.07l-.27.75-.33.87c-.09.2-.17.41-.26.61s-.23.54-.35.8-.2.43-.31.64c-.36.75-.75,1.48-1.16,2.19-.25.42-.5.83-.76,1.24-.49.75-1,1.48-1.54,2.18-.12.17-.26.34-.39.5a35,35,0,0,1-2.76,3.09c-.31.3-.62.6-.94.89s-.59.54-.9.8c-.53.46-1.07.89-1.62,1.31l-1,.75-.32.22c-.36.25-.72.48-1.08.72l-.16.1c-.9.57-1.82,1.1-2.78,1.59l0,0c-.48.24-1,.48-1.47.71h0l-1.3.56-.57.22-1.18.44c-.48.17-1,.33-1.45.48l-.18.05c-.52.15-1,.3-1.57.43s-1.09.26-1.65.38l-1.26.23-.61.1c-.47.07-1,.14-1.42.19l-.15,0c-.46.05-.92.09-1.39.12l-.27,0v-511.8l.27,0c.47,0,.93.07,1.39.12l.15,0c.47.05.95.12,1.42.19l.61.1,1.26.23c.56.12,1.11.24,1.65.38s1.05.28,1.57.43l.18.05c.49.15,1,.31,1.45.48l1.18.44.28.11.49.2c.94.39,1.85.81,2.73,1.27.43.22.86.46,1.29.7l.11.06c.42.24.83.49,1.24.75a34.19,34.19,0,0,1,3.6,2.59l.55.46.09.07c.29.25.58.5.86.76s.66.62,1,.94.39.39.58.59c.39.4.76.8,1.12,1.22.19.21.36.42.54.63s.35.43.52.64l.51.66c.18.23.35.46.52.7.61.85,1.18,1.74,1.71,2.65l.45.81c.13.24.26.48.38.73a32.09,32.09,0,0,1,2.68,7.3c.06.26.12.52.17.79.16.73.28,1.46.38,2.21,0,.19.05.37.07.55s0,.3,0,.44c0,.41.08.83.1,1.25,0,.11,0,.21,0,.32s0,.48,0,.72S5334.55,3379.64,5334.55,3380Z"/><path class="cls-3" d="M3472.39,3539.09c0,148.14,77.59,299.8,299.8,299.8s423.24-208.09,423.24-423.24c0-162.24-63.49-229.26-158.72-229.26-134,0-77.59,345.65-162.24,345.65s-84.65-239.84-239.84-239.84S3472.39,3454.44,3472.39,3539.09Z"/><line class="cls-8" x1="3504.74" y1="3290.39" x2="3555.02" y2="3340.66"/><line class="cls-8" x1="3460.47" y1="3401.58" x2="3531.58" y2="3401.58"/><line class="cls-8" x1="3615.94" y1="3246.12" x2="3615.94" y2="3317.22"/><rect class="cls-3" x="3487.42" y="3892.73" width="762.01" height="25.86"/><circle class="cls-5" cx="3884.42" cy="3642.49" r="48.2"/><circle class="cls-6" cx="3961.53" cy="3555.74" r="28.92"/><path class="cls-7" d="M3894.06,3501.21a22.55,22.55,0,0,1-6.62,16l-31.94,31.94a22.59,22.59,0,1,1-31.94-31.94l31.94-31.94a22.59,22.59,0,0,1,38.56,16Z"/><path class="cls-5" d="M4132.59,3445.66q-8.64-4.63-17.79-8.88l.29-3q1.46-15.49,1.47-29.74c0-57.86-18-99.67-51.93-119.26-21.5-12.41-47.52-14.82-76.46-7.56-24.22,6.06-50.48,18.91-77.81,38.36q-8.16,5.8-16.29,12.27-8.13-6.47-16.29-12.27c-32.56-23.15-63.58-37-91.46-41.1-23.5-3.5-44.76-.14-62.82,10.29-39.49,22.8-57.41,75.71-50.47,149l.29,3q-9.14,4.24-17.79,8.88c-66.16,35.41-102.59,83.19-102.59,134.54s36.44,99.14,102.59,134.54q5.53,3,11.27,5.76,3.23,1.59,6.52,3.12c-.1,1-.19,2-.29,3-6.94,73.29,11,126.21,50.47,149,13.48,7.79,28.74,11.63,45.39,11.63,18.35,0,38.38-4.68,59.55-13.94a278.63,278.63,0,0,0,49.33-28.49q8.16-5.8,16.29-12.27,8.13,6.47,16.29,12.27c39.51,28.1,76.77,42.43,108.88,42.43a96.18,96.18,0,0,0,23.88-2.9,84.69,84.69,0,0,0,21.51-8.73c39.49-22.8,57.41-75.72,50.47-149-.1-1-.19-2-.29-3q9.14-4.24,17.79-8.88c66.16-35.41,102.59-83.2,102.59-134.54S4198.75,3481.07,4132.59,3445.66ZM3925.86,3337.4c18.93-13.45,37-23.37,54.11-29.64h0a141.83,141.83,0,0,1,17.48-5.22,99.09,99.09,0,0,1,21.8-2.6,70.4,70.4,0,0,1,17,2,57.78,57.78,0,0,1,15,6c14.52,8.39,25.15,23.15,31.57,43.87,6.3,20.26,8.34,45.15,6.08,74-37.6-14.34-80-24.3-124.84-29.37q-3-3.52-6-7a529.53,529.53,0,0,0-43.15-44C3918.54,3342.71,3922.2,3340,3925.86,3337.4Zm-198.46,276.88c7.69,15.93,16.11,31.83,25.2,47.59a715.93,715.93,0,0,0,49.28,74.41c-35.91-5.76-69.61-14.89-99.7-27.11C3706.73,3679.06,3715.29,3647,3727.39,3614.28Zm-7.82-90.75a461.06,461.06,0,0,1-17.4-72.29,408.88,408.88,0,0,1,40.52-14,495.78,495.78,0,0,1,59.19-13.14,715.77,715.77,0,0,0-49.28,74.39q-13.64,23.65-25.2,47.6Q3723.2,3534.76,3719.58,3523.53Zm56.22,124.95a691.12,691.12,0,0,1-34.63-68.28,691.28,691.28,0,0,1,34.63-68.29,672.45,672.45,0,0,1,64-92.52c17.75-1.61,35.9-2.43,54.29-2.43s36.54.82,54.29,2.43q.66.79,1.29,1.57a673.06,673.06,0,0,1,62.69,90.94,691.28,691.28,0,0,1,34.63,68.29,691.12,691.12,0,0,1-34.63,68.28,672.57,672.57,0,0,1-64,92.53c-17.75,1.61-35.9,2.43-54.29,2.43q-15.44,0-30.62-.77-11.94-.59-23.67-1.66A672.57,672.57,0,0,1,3775.79,3648.48Zm259.73,13.39c9.09-15.75,17.51-31.66,25.2-47.59,12.1,32.73,20.66,64.78,25.22,94.88-30.1,12.22-63.79,21.35-99.7,27.11A715.93,715.93,0,0,0,4035.52,3661.87Zm0-163.34a715.77,715.77,0,0,0-49.28-74.39c35.91,5.76,69.61,14.89,99.7,27.11-4.56,30.11-13.12,62.15-25.22,94.88Q4049.19,3522.23,4035.52,3498.52Zm-141.46-135.73q15.87,14.07,31.36,30.59-15.55-.79-31.36-.78t-31.36.78Q3878.14,3376.91,3894.06,3362.79Zm-188.75-11c6.43-20.72,17.05-35.48,31.57-43.87,9.25-5.34,20-8,32-8a88.14,88.14,0,0,1,10.45.64,108.6,108.6,0,0,1,11.34,2c22,5,46.07,16.7,71.6,34.85,3.65,2.6,7.32,5.31,11,8.13a538.09,538.09,0,0,0-49.15,51,553,553,0,0,0-74,13.38,462.38,462.38,0,0,0-50.8,16C3697,3397,3699,3372.1,3705.31,3351.84ZM3673.37,3696c-1.44-.74-2.86-1.48-4.27-2.24-57.64-30.86-89.39-71.18-89.39-113.54s31.75-82.68,89.39-113.54c2.56-1.37,5.16-2.72,7.8-4,5.77,33.87,16.13,69.77,30.55,106.2q2.23,5.67,4.62,11.36c-16.84,40.31-28.8,80.19-35.17,117.57C3675.71,3697.18,3674.53,3696.58,3673.37,3696Zm188.89,127a287,287,0,0,1-24.56,15.72c-16.5,9.37-32.25,15.78-47,19.12-21.16,4.8-39.25,3-53.78-5.41s-25.15-23.15-31.57-43.87c-6.3-20.26-8.34-45.14-6.08-74,37.6,14.34,80,24.3,124.84,29.37q12.77,15,26,28.63,11.44,11.78,23.15,22.34Q3867.75,3819.1,3862.26,3823Zm31.8-25.4c-10.58-9.37-21.07-19.6-31.36-30.58q15.55.79,31.36.78t31.36-.78C3915.12,3778,3904.64,3788.23,3894.06,3797.6Zm188.75,11c-6.43,20.72-17.05,35.48-31.57,43.87s-32.61,10.2-53.78,5.41c-22-5-46.07-16.7-71.6-34.84q-5.49-3.9-11-8.13a537,537,0,0,0,49.16-51c44.89-5.07,87.24-15,124.84-29.37C4091.15,3763.42,4089.1,3788.3,4082.81,3808.57ZM4119,3693.74q-3.84,2.06-7.79,4c-6.37-37.38-18.34-77.25-35.17-117.57,16.84-40.31,28.79-80.19,35.16-117.57,2.63,1.31,5.24,2.66,7.8,4,57.64,30.86,89.39,71.17,89.39,113.54S4176.66,3662.89,4119,3693.74Z"/><path class="cls-7" d="M3786.31,3274.49l-7,26.1a88.14,88.14,0,0,0-10.45-.64c-12,0-22.73,2.68-32,8-14.52,8.39-25.15,23.15-31.57,43.87-6.3,20.26-8.34,45.15-6.08,74a462.38,462.38,0,0,1,50.8-16l-7.34,27.4a408.88,408.88,0,0,0-40.52,14,461.06,461.06,0,0,0,17.4,72.29l-12.13,45.3c-14.42-36.44-24.77-72.34-30.55-106.2-2.63,1.31-5.24,2.66-7.8,4-57.64,30.86-89.39,71.17-89.39,113.54s31.75,82.68,89.39,113.54c1.41.76,2.84,1.5,4.27,2.24l-6.58,24.53q-5.74-2.8-11.27-5.76c-66.16-35.41-102.59-83.2-102.59-134.54s36.44-99.14,102.59-134.54q8.64-4.63,17.79-8.88l-.29-3c-6.94-73.29,11-126.2,50.47-149C3741.55,3274.35,3762.81,3271,3786.31,3274.49Z"/><path class="cls-6" d="M4132.59,3445.66q-8.64-4.63-17.79-8.88l.29-3q1.46-15.49,1.47-29.74c0-57.86-18-99.67-51.93-119.26-21.5-12.41-47.52-14.82-76.46-7.56l-8.18,30.55a141.83,141.83,0,0,1,17.48-5.22,99.09,99.09,0,0,1,21.8-2.6,70.4,70.4,0,0,1,17,2,57.78,57.78,0,0,1,15,6c14.52,8.39,25.15,23.15,31.57,43.87,6.3,20.26,8.34,45.15,6.08,74-37.6-14.34-80-24.3-124.84-29.37q-3-3.52-6-7l-8.42,31.42a673.06,673.06,0,0,1,62.69,90.94,691.28,691.28,0,0,1,34.63,68.29,691.12,691.12,0,0,1-34.63,68.28,672.57,672.57,0,0,1-64,92.53c-17.75,1.61-35.9,2.43-54.29,2.43q-15.44,0-30.62-.77l-13.36,49.87q11.44,11.78,23.15,22.34-5.48,4.23-11,8.13a287,287,0,0,1-24.56,15.72l-9.26,34.58a278.63,278.63,0,0,0,49.33-28.49q8.16-5.8,16.29-12.27,8.13,6.47,16.29,12.27c39.51,28.1,76.77,42.43,108.88,42.43a96.18,96.18,0,0,0,23.88-2.9,84.69,84.69,0,0,0,21.51-8.73c39.49-22.8,57.41-75.72,50.47-149-.1-1-.19-2-.29-3q9.14-4.24,17.79-8.88c66.16-35.41,102.59-83.2,102.59-134.54S4198.75,3481.07,4132.59,3445.66Zm-97.07,52.87a715.77,715.77,0,0,0-49.28-74.39c35.91,5.76,69.61,14.89,99.7,27.11-4.56,30.11-13.12,62.15-25.22,94.88Q4049.19,3522.23,4035.52,3498.52Zm0,163.34c9.09-15.75,17.51-31.66,25.2-47.59,12.1,32.73,20.66,64.78,25.22,94.88-30.1,12.22-63.79,21.35-99.7,27.11A715.93,715.93,0,0,0,4035.52,3661.87ZM3894.06,3797.6c-10.58-9.37-21.07-19.6-31.36-30.58q15.55.79,31.36.78t31.36-.78C3915.12,3778,3904.64,3788.23,3894.06,3797.6Zm188.75,11c-6.43,20.72-17.05,35.48-31.57,43.87s-32.61,10.2-53.78,5.41c-22-5-46.07-16.7-71.6-34.84q-5.49-3.9-11-8.13a537,537,0,0,0,49.16-51c44.89-5.07,87.24-15,124.84-29.37C4091.15,3763.42,4089.1,3788.3,4082.81,3808.57ZM4119,3693.74q-3.84,2.06-7.79,4c-6.37-37.38-18.34-77.25-35.17-117.57,16.84-40.31,28.79-80.19,35.16-117.57,2.63,1.31,5.24,2.66,7.8,4,57.64,30.86,89.39,71.17,89.39,113.54S4176.66,3662.89,4119,3693.74Z"/><path class="cls-3" d="M4767.51,2333.29c-95.67,108.59-136.74,269.88,26.15,413.39s444.66,120.8,583.6-36.92C5482,2590.82,5478.78,2500.7,5409,2439.2c-98.25-86.56-280.11,203.27-342.16,148.6s92.84-230.48-20.92-330.71S4822.17,2271.24,4767.51,2333.29Z"/><line class="cls-8" x1="5273.22" y1="2268.31" x2="5222.94" y2="2318.59"/><line class="cls-8" x1="5162.03" y1="2224.04" x2="5162.03" y2="2295.15"/><line class="cls-8" x1="5317.49" y1="2379.51" x2="5246.39" y2="2379.51"/><rect class="cls-3" x="4664.55" y="2875.65" width="762.01" height="25.86"/><path class="cls-7" d="M5084,2379.51v180H4817.45v-77.14l-42.55-76.2a17.92,17.92,0,0,1,15.65-26.66Z"/><path class="cls-5" d="M5084,2559.51V2872.1a105,105,0,0,1-15.35,1.12H4922.8a105.34,105.34,0,0,1-105.35-105.34V2559.51Z"/><rect class="cls-5" x="4868.02" y="2514.51" width="99" height="27"/><rect class="cls-7" x="4868.02" y="2640.51" width="99" height="27"/><rect class="cls-7" x="4868.02" y="2703.51" width="99" height="27"/><rect class="cls-7" x="4868.02" y="2577.51" width="99" height="27"/><path class="cls-5" d="M5174,2405v154.5h-90v-180h64.5A25.5,25.5,0,0,1,5174,2405Z"/><path class="cls-6" d="M5174,2559.51v208.37a105.34,105.34,0,0,1-90,104.22V2559.51Z"/><path class="cls-3" d="M1512.18,2838.51c133.06-19.59,165.65-183,203.48-233.87,40.12-54,226-157.88,209.67-268.76-12.13-82.42-89.38-145.44-200.26-129.12s-154.9,102.1-243.61,115.16-165-43.68-242.65-32.25-158.16,79.93-146.74,157.54c16.32,110.88,143.61,138.54,184.62,176.74C1329.19,2672.85,1401.29,2854.83,1512.18,2838.51Z"/><rect class="cls-3" x="1136.04" y="2875.65" width="762.01" height="25.86"/><polygon class="cls-7" points="1524.79 2203.4 1524.79 2681.89 1326.48 2681.89 1406.97 2453.12 1406.97 2203.4 1524.79 2203.4"/><polygon class="cls-5" points="1643.54 2681.89 1524.79 2681.89 1524.79 2203.4 1563.04 2203.4 1563.04 2453.12 1643.54 2681.89"/><rect class="cls-7" x="1373.09" y="2156.58" width="226.3" height="46.82"/><rect class="cls-6" x="1406.97" y="2203.4" width="156.07" height="39.02"/><path class="cls-6" d="M1651.77,2874.51h-127V2681.89h118.75l48,136.45A42.17,42.17,0,0,1,1651.77,2874.51Z"/><path class="cls-5" d="M1524.79,2681.89v192.62H1318.25a42.17,42.17,0,0,1-39.78-56.17l48-136.45Z"/><rect class="cls-5" x="1411.19" y="2576.83" width="70.04" height="26.27"/><rect class="cls-7" x="1411.19" y="2699.4" width="70.04" height="26.27"/><rect class="cls-7" x="1411.19" y="2760.69" width="70.04" height="26.27"/><rect class="cls-5" x="1411.19" y="2638.11" width="70.04" height="26.27"/><line class="cls-8" x1="1236.37" y1="2323.58" x2="1307.47" y2="2323.58"/><line class="cls-8" x1="1283.69" y1="2433.51" x2="1333.97" y2="2383.23"/><line class="cls-8" x1="1283.69" y1="2213.65" x2="1333.97" y2="2263.93"/><path class="cls-3" d="M3369,2659.79c-.85,99.59,113.58,144.58,278.9,152.45s464.75-48.78,555.85-211.85,19.16-330.05-49.78-403.31c-73.79-78.42-202.32-62.09-251-13.78-73.44,72.85-54.9,268.26-115.6,334.29C3685,2628.93,3370.68,2457,3369,2659.79Z"/><line class="cls-8" x1="3696.88" y1="2134.99" x2="3747.16" y2="2185.27"/><line class="cls-8" x1="3652.61" y1="2246.19" x2="3723.71" y2="2246.19"/><line class="cls-8" x1="3808.07" y1="2090.72" x2="3808.07" y2="2161.83"/><rect class="cls-3" x="3506.18" y="2875.65" width="762.01" height="25.86"/><g class="cls-9"><path class="cls-10" d="M3637.81,2632.77"/></g><g class="cls-9"><path class="cls-10" d="M3647.61,2589.74"/></g><path class="cls-5" d="M4069.77,2268.91v608H3817.85V2588.2a133.08,133.08,0,0,1-113.77,64.15c-1.08,0-2.18,0-3.26,0a133,133,0,0,1-116.58-75.21,33.86,33.86,0,0,1,61-29.44,65.7,65.7,0,0,0,41.16,34.48,64.78,64.78,0,0,0,14.43,2.39c1.08.06,2.17.09,3.26.09a65.29,65.29,0,0,0,16.1-128.56h0a65.19,65.19,0,0,0-16.09-2c-1.09,0-2.18,0-3.26.09a65.72,65.72,0,0,0-55.58,36.88,33.86,33.86,0,0,1-61-29.43,133,133,0,0,1,116.58-75.21c1.08,0,2.18,0,3.26,0a132.82,132.82,0,0,1,113.77,64.15V2268.91a33.86,33.86,0,1,1,67.72,0v144.8h24.38v-144.8a33.86,33.86,0,1,1,67.72,0v144.8H4002v-144.8a33.86,33.86,0,1,1,67.72,0Z"/><path class="cls-7" d="M3686.39,2582.15l-17.54,65.47a133,133,0,0,1-84.61-70.52,33.86,33.86,0,0,1,61-29.44A65.7,65.7,0,0,0,3686.39,2582.15Z"/><path class="cls-7" d="M3737.7,2390.66l-17.53,65.42h0a65.19,65.19,0,0,0-16.09-2c-1.09,0-2.18,0-3.26.09a65.72,65.72,0,0,0-55.58,36.88,33.86,33.86,0,0,1-61-29.43,133,133,0,0,1,116.58-75.21c1.08,0,2.18,0,3.26,0A132.82,132.82,0,0,1,3737.7,2390.66Z"/><polygon class="cls-11" points="4069.77 2276.58 4069.77 2876.92 3908.91 2876.92 4069.77 2276.58"/><path class="cls-3" d="M2734.11,2208.91c-75.53-61.83-215.82,32.38-228.39,144.16-16.86,149.93-361.17,185.15-237,405.13,89.94,159.39,418.09-67.71,534-35.91s231.77,63.59,285.87-2.5,28.37-150.22-18.84-188.87-125.33-39.52-210.3-109.08S2838,2293.93,2734.11,2208.91Z"/><line class="cls-8" x1="2260.66" y1="2270.77" x2="2310.94" y2="2321.05"/><line class="cls-8" x1="2216.4" y1="2381.97" x2="2287.5" y2="2381.97"/><line class="cls-8" x1="2371.86" y1="2226.51" x2="2371.86" y2="2297.61"/><rect class="cls-3" x="2275.85" y="2875.65" width="762.01" height="25.86"/><path class="cls-7" d="M2735.47,2867.58a35.22,35.22,0,0,1-21,6.93h63a35.43,35.43,0,0,0,35.42-34.79c0-.21,0-.43,0-.64V2406.51a35.44,35.44,0,0,0-35.43-35.43h-63a35.2,35.2,0,0,1,21,6.93,34.59,34.59,0,0,1,4,3.45,35.27,35.27,0,0,1,10.38,25v432.57c0,.21,0,.43,0,.64A35.35,35.35,0,0,1,2735.47,2867.58Z"/><path class="cls-6" d="M2735.22,2587.07h392.07a0,0,0,0,1,0,0v61.86a0,0,0,0,1,0,0H2735.22a30.93,30.93,0,0,1-30.93-30.93v0A30.93,30.93,0,0,1,2735.22,2587.07Z" transform="translate(5533.8 -297.78) rotate(90)"/><rect class="cls-7" x="2919.72" y="2451.51" width="45" height="180"/><polygon class="cls-7" points="2884.86 2829.51 2915.29 2876.65 2946.72 2829.51 2884.86 2829.51"/><path class="cls-5" d="M2749.86,2406.51v432.57c0,.21,0,.43,0,.64a35.44,35.44,0,0,1-35.42,34.79H2425.86V2371.08h288.57a35.2,35.2,0,0,1,21,6.93,34.58,34.58,0,0,1,4,3.45A35.27,35.27,0,0,1,2749.86,2406.51Z"/><rect class="cls-7" x="2533.86" y="2463.8" width="171" height="149.71"/><rect class="cls-5" x="2569.86" y="2496.51" width="99" height="27" transform="translate(5238.72 5020.01) rotate(-180)"/><rect class="cls-5" x="2569.86" y="2550.51" width="99" height="27" transform="translate(5238.72 5128.01) rotate(-180)"/><rect class="cls-6" x="2425.86" y="2371.08" width="63" height="503.43"/></g></g></g></svg>