<svg xmlns="http://www.w3.org/2000/svg" viewBox="0 0 3460.5 3460.5"><defs><style>.cls-1{isolation:isolate;}.cls-2{fill:#fcf6f4;}.cls-3{fill:#f8e4db;}.cls-4,.cls-9{fill:none;stroke-linecap:round;}.cls-4{stroke:#3b98ff;stroke-linejoin:round;stroke-width:25px;}.cls-5{fill:#f05929;}.cls-10,.cls-6{fill:#cb441f;}.cls-7{fill:#f68b68;}.cls-8{opacity:0.4;}.cls-9{stroke:#cb441f;stroke-miterlimit:10;stroke-width:75px;}.cls-10{opacity:0.56;mix-blend-mode:multiply;}</style></defs><title>Asset 11</title><g class="cls-1"><g id="Layer_2" data-name="Layer 2"><g id="Layer_1-2" data-name="Layer 1"><rect class="cls-2" width="3460.5" height="3460.5"/><path class="cls-3" d="M702.67,1262c0,148.14,77.59,299.8,299.8,299.8s423.24-208.09,423.24-423.24c0-162.24-63.49-229.26-158.72-229.26-134,0-77.59,345.65-162.24,345.65S1020.1,1015.1,864.91,1015.1,702.67,1177.34,702.67,1262Z"/><line class="cls-4" x1="735.02" y1="1013.29" x2="785.3" y2="1063.57"/><line class="cls-4" x1="690.75" y1="1124.48" x2="761.85" y2="1124.48"/><line class="cls-4" x1="846.21" y1="969.02" x2="846.21" y2="1040.12"/><rect class="cls-3" x="717.7" y="1615.63" width="762.01" height="25.86"/><circle class="cls-5" cx="1114.7" cy="1365.4" r="48.2"/><circle class="cls-6" cx="1191.81" cy="1278.64" r="28.92"/><path class="cls-7" d="M1124.33,1224.11a22.55,22.55,0,0,1-6.62,16L1085.77,1272a22.59,22.59,0,1,1-31.94-31.94l31.94-31.94a22.59,22.59,0,0,1,38.56,16Z"/><path class="cls-5" d="M1362.86,1168.56q-8.64-4.63-17.79-8.88l.29-3q1.46-15.49,1.47-29.74c0-57.86-18-99.67-51.93-119.26-21.5-12.41-47.52-14.82-76.46-7.56-24.22,6.06-50.48,18.91-77.81,38.36q-8.16,5.8-16.29,12.27-8.13-6.47-16.29-12.27c-32.56-23.15-63.58-37-91.46-41.1-23.5-3.5-44.76-.14-62.82,10.29-39.49,22.8-57.41,75.71-50.47,149l.29,3q-9.14,4.24-17.79,8.88c-66.16,35.41-102.59,83.19-102.59,134.54s36.44,99.14,102.59,134.54q5.53,3,11.27,5.76,3.23,1.59,6.52,3.12c-.1,1-.19,2-.29,3-6.94,73.29,11,126.21,50.47,149,13.48,7.79,28.74,11.63,45.39,11.63,18.35,0,38.38-4.68,59.55-13.94a278.63,278.63,0,0,0,49.33-28.49q8.16-5.8,16.29-12.27,8.13,6.47,16.29,12.27c39.51,28.1,76.77,42.43,108.88,42.43a96.18,96.18,0,0,0,23.88-2.9,84.69,84.69,0,0,0,21.51-8.73c39.49-22.8,57.41-75.72,50.47-149-.1-1-.19-2-.29-3q9.14-4.24,17.79-8.88c66.16-35.41,102.59-83.2,102.59-134.54S1429,1204,1362.86,1168.56ZM1156.13,1060.3c18.93-13.45,37-23.37,54.11-29.64h0a141.83,141.83,0,0,1,17.48-5.22,99.09,99.09,0,0,1,21.8-2.6,70.4,70.4,0,0,1,17,2,57.78,57.78,0,0,1,15,6c14.52,8.39,25.15,23.15,31.57,43.87,6.3,20.26,8.34,45.15,6.08,74-37.6-14.34-80-24.3-124.84-29.37q-3-3.52-6-7a529.53,529.53,0,0,0-43.15-44C1148.82,1065.61,1152.48,1062.9,1156.13,1060.3ZM957.67,1337.19c7.69,15.93,16.11,31.83,25.2,47.59a715.93,715.93,0,0,0,49.28,74.4c-35.91-5.76-69.61-14.89-99.7-27.11C937,1402,945.57,1369.92,957.67,1337.19Zm-7.82-90.75a461.06,461.06,0,0,1-17.4-72.29,408.88,408.88,0,0,1,40.52-14,495.78,495.78,0,0,1,59.19-13.14,715.77,715.77,0,0,0-49.28,74.39q-13.64,23.65-25.2,47.6Q953.48,1257.67,949.85,1246.44Zm56.22,124.95a691.12,691.12,0,0,1-34.63-68.28,691.28,691.28,0,0,1,34.63-68.29,672.45,672.45,0,0,1,64-92.52c17.75-1.61,35.9-2.43,54.29-2.43s36.54.82,54.29,2.43q.66.79,1.29,1.57a673.06,673.06,0,0,1,62.69,90.94,691.28,691.28,0,0,1,34.63,68.29,691.12,691.12,0,0,1-34.63,68.28,672.57,672.57,0,0,1-64,92.53c-17.75,1.61-35.9,2.43-54.29,2.43q-15.44,0-30.62-.77-11.94-.59-23.67-1.66A672.57,672.57,0,0,1,1006.07,1371.38Zm259.73,13.39c9.09-15.75,17.51-31.66,25.2-47.59,12.1,32.73,20.66,64.78,25.22,94.88-30.1,12.22-63.79,21.35-99.7,27.11A715.93,715.93,0,0,0,1265.8,1384.77Zm0-163.34a715.77,715.77,0,0,0-49.28-74.39c35.91,5.76,69.61,14.89,99.7,27.11-4.56,30.11-13.12,62.15-25.22,94.88Q1279.46,1245.14,1265.8,1221.43ZM1124.33,1085.7q15.87,14.07,31.36,30.59-15.55-.79-31.36-.78t-31.36.78Q1108.41,1099.82,1124.33,1085.7Zm-188.75-11c6.43-20.72,17.05-35.48,31.57-43.87,9.25-5.34,20-8,32-8a88.14,88.14,0,0,1,10.45.64,108.6,108.6,0,0,1,11.34,2c22,5,46.07,16.7,71.6,34.85,3.65,2.6,7.32,5.31,11,8.13a538.09,538.09,0,0,0-49.15,51,553,553,0,0,0-74,13.38,462.37,462.37,0,0,0-50.8,16C927.24,1119.89,929.29,1095,935.59,1074.74Zm-31.94,344.15c-1.44-.74-2.86-1.48-4.27-2.24-57.64-30.86-89.39-71.18-89.39-113.54s31.75-82.68,89.39-113.54c2.56-1.37,5.16-2.72,7.8-4,5.77,33.87,16.13,69.77,30.55,106.2q2.23,5.67,4.62,11.36c-16.84,40.31-28.8,80.19-35.17,117.57C906,1420.08,904.8,1419.48,903.65,1418.88Zm188.89,127a287,287,0,0,1-24.56,15.72c-16.5,9.37-32.25,15.78-47,19.12-21.16,4.8-39.25,3-53.78-5.41s-25.15-23.15-31.57-43.87c-6.3-20.26-8.34-45.14-6.08-74,37.6,14.34,80,24.3,124.84,29.37q12.77,15,26,28.63,11.44,11.78,23.15,22.34Q1098,1542,1092.54,1545.91Zm31.8-25.4c-10.58-9.37-21.07-19.6-31.36-30.58q15.55.79,31.36.78t31.36-.78C1145.4,1500.9,1134.92,1511.13,1124.33,1520.5Zm188.75,11c-6.43,20.72-17.05,35.48-31.57,43.87s-32.61,10.2-53.78,5.41c-22-5-46.07-16.7-71.6-34.84q-5.49-3.9-11-8.13a537,537,0,0,0,49.16-51c44.89-5.07,87.24-15,124.84-29.37C1321.43,1486.33,1319.38,1511.21,1313.08,1531.47Zm36.21-114.83q-3.84,2.06-7.79,4c-6.37-37.38-18.34-77.25-35.17-117.57,16.84-40.31,28.79-80.19,35.16-117.57,2.63,1.31,5.24,2.66,7.8,4,57.64,30.86,89.39,71.17,89.39,113.54S1406.94,1385.79,1349.29,1416.65Z"/><path class="cls-7" d="M1016.59,997.39l-7,26.1a88.14,88.14,0,0,0-10.45-.64c-12,0-22.73,2.68-32,8-14.52,8.39-25.15,23.15-31.57,43.87-6.3,20.26-8.34,45.15-6.08,74a462.37,462.37,0,0,1,50.8-16l-7.34,27.4a408.88,408.88,0,0,0-40.52,14,461.06,461.06,0,0,0,17.4,72.29l-12.13,45.3c-14.42-36.44-24.77-72.34-30.55-106.2-2.63,1.31-5.24,2.66-7.8,4-57.64,30.86-89.39,71.17-89.39,113.54s31.75,82.68,89.39,113.54c1.41.76,2.84,1.5,4.27,2.24l-6.58,24.53q-5.74-2.8-11.27-5.76c-66.16-35.41-102.59-83.2-102.59-134.54S819.65,1204,885.8,1168.56q8.64-4.63,17.79-8.88l-.29-3c-6.94-73.29,11-126.2,50.47-149C971.83,997.25,993.09,993.89,1016.59,997.39Z"/><path class="cls-6" d="M1362.86,1168.56q-8.64-4.63-17.79-8.88l.29-3q1.46-15.49,1.47-29.74c0-57.86-18-99.67-51.93-119.26-21.5-12.41-47.52-14.82-76.46-7.56l-8.18,30.55a141.83,141.83,0,0,1,17.48-5.22,99.09,99.09,0,0,1,21.8-2.6,70.4,70.4,0,0,1,17,2,57.78,57.78,0,0,1,15,6c14.52,8.39,25.15,23.15,31.57,43.87,6.3,20.26,8.34,45.15,6.08,74-37.6-14.34-80-24.3-124.84-29.37q-3-3.52-6-7l-8.42,31.42a673.06,673.06,0,0,1,62.69,90.94,691.28,691.28,0,0,1,34.63,68.29,691.12,691.12,0,0,1-34.63,68.28,672.57,672.57,0,0,1-64,92.53c-17.75,1.61-35.9,2.43-54.29,2.43q-15.44,0-30.62-.77l-13.36,49.87q11.44,11.78,23.15,22.34-5.48,4.23-11,8.13a287,287,0,0,1-24.56,15.72l-9.26,34.58a278.63,278.63,0,0,0,49.33-28.49q8.16-5.8,16.29-12.27,8.13,6.47,16.29,12.27c39.51,28.1,76.77,42.43,108.88,42.43a96.18,96.18,0,0,0,23.88-2.9,84.69,84.69,0,0,0,21.51-8.73c39.49-22.8,57.41-75.72,50.47-149-.1-1-.19-2-.29-3q9.14-4.24,17.79-8.88c66.16-35.41,102.59-83.2,102.59-134.54S1429,1204,1362.86,1168.56Zm-97.07,52.87a715.77,715.77,0,0,0-49.28-74.39c35.91,5.76,69.61,14.89,99.7,27.11-4.56,30.11-13.12,62.15-25.22,94.88Q1279.46,1245.14,1265.8,1221.43Zm0,163.34c9.09-15.75,17.51-31.66,25.2-47.59,12.1,32.73,20.66,64.78,25.22,94.88-30.1,12.22-63.79,21.35-99.7,27.11A715.93,715.93,0,0,0,1265.8,1384.77ZM1124.33,1520.5c-10.58-9.37-21.07-19.6-31.36-30.58q15.55.79,31.36.78t31.36-.78C1145.4,1500.9,1134.92,1511.13,1124.33,1520.5Zm188.75,11c-6.43,20.72-17.05,35.48-31.57,43.87s-32.61,10.2-53.78,5.41c-22-5-46.07-16.7-71.6-34.84q-5.49-3.9-11-8.13a537,537,0,0,0,49.16-51c44.89-5.07,87.24-15,124.84-29.37C1321.43,1486.33,1319.38,1511.21,1313.08,1531.47Zm36.21-114.83q-3.84,2.06-7.79,4c-6.37-37.38-18.34-77.25-35.17-117.57,16.84-40.31,28.79-80.19,35.16-117.57,2.63,1.31,5.24,2.66,7.8,4,57.64,30.86,89.39,71.17,89.39,113.54S1406.94,1385.79,1349.29,1416.65Z"/><path class="cls-3" d="M1797.76,1376.43c-.94,110.3,125.79,160.12,308.88,168.84s514.71-54,615.6-234.62,21.22-365.53-55.13-446.67c-81.72-86.85-224.07-68.77-278-15.26-81.34,80.68-60.8,297.09-128,370.23C2147.74,1342.25,1799.67,1151.85,1797.76,1376.43Z"/><line class="cls-4" x1="2204.79" y1="812.35" x2="2255.07" y2="862.63"/><line class="cls-4" x1="2160.52" y1="923.54" x2="2231.62" y2="923.54"/><line class="cls-4" x1="2315.98" y1="768.08" x2="2315.98" y2="839.18"/><rect class="cls-3" x="1934.98" y="1615.63" width="762.01" height="25.86"/><g class="cls-8"><path class="cls-9" d="M2095.51,1346.51"/></g><g class="cls-8"><path class="cls-9" d="M2106.36,1298.85"/></g><path class="cls-5" d="M2573.9,943.54V1616.9h-279V1297.15a147.39,147.39,0,0,1-126,71.05c-1.2,0-2.41,0-3.61-.05a147.25,147.25,0,0,1-129.11-83.29,37.5,37.5,0,0,1,67.55-32.6,72.76,72.76,0,0,0,45.58,38.19,71.74,71.74,0,0,0,16,2.65c1.2.07,2.4.1,3.61.1a72.31,72.31,0,0,0,17.83-142.38h0a72.2,72.2,0,0,0-17.82-2.22c-1.21,0-2.41,0-3.61.1a72.79,72.79,0,0,0-61.56,40.84,37.5,37.5,0,0,1-67.55-32.59,147.28,147.28,0,0,1,129.11-83.3c1.2,0,2.41,0,3.61,0a147.1,147.1,0,0,1,126,71V943.54a37.5,37.5,0,1,1,75,0V1103.9h27V943.54a37.5,37.5,0,1,1,75,0V1103.9h27V943.54a37.5,37.5,0,1,1,75,0Z"/><path class="cls-7" d="M2149.31,1290.45,2129.88,1363a147.35,147.35,0,0,1-93.7-78.1,37.5,37.5,0,0,1,67.55-32.6A72.76,72.76,0,0,0,2149.31,1290.45Z"/><path class="cls-7" d="M2206.14,1078.37l-19.41,72.45h0a72.2,72.2,0,0,0-17.82-2.22c-1.21,0-2.41,0-3.61.1a72.79,72.79,0,0,0-61.56,40.84,37.5,37.5,0,0,1-67.55-32.59,147.28,147.28,0,0,1,129.11-83.3c1.2,0,2.41,0,3.61,0A147.1,147.1,0,0,1,2206.14,1078.37Z"/><polygon class="cls-10" points="2573.9 952.03 2573.9 1616.9 2395.75 1616.9 2573.9 952.03"/><path class="cls-3" d="M1112,2629.42c133.06-19.59,165.65-183,203.48-233.87,40.12-54,226-157.88,209.67-268.76-12.13-82.42-89.38-145.44-200.26-129.12s-154.9,102.1-243.61,115.16-165-43.68-242.65-32.25-158.16,79.93-146.74,157.54c16.32,110.88,143.61,138.54,184.62,176.74C929,2463.77,1001.07,2645.74,1112,2629.42Z"/><rect class="cls-3" x="735.82" y="2666.56" width="762.01" height="25.86"/><polygon class="cls-7" points="1124.57 1994.31 1124.57 2472.8 926.26 2472.8 1006.75 2244.03 1006.75 1994.31 1124.57 1994.31"/><polygon class="cls-5" points="1243.32 2472.8 1124.57 2472.8 1124.57 1994.31 1162.82 1994.31 1162.82 2244.03 1243.32 2472.8"/><rect class="cls-7" x="972.87" y="1947.49" width="226.3" height="46.82"/><rect class="cls-6" x="1006.75" y="1994.31" width="156.07" height="39.02"/><path class="cls-6" d="M1251.55,2665.42h-127V2472.81h118.75l48,136.45A42.17,42.17,0,0,1,1251.55,2665.42Z"/><path class="cls-5" d="M1124.57,2472.81v192.62H918a42.17,42.17,0,0,1-39.78-56.17l48-136.45Z"/><rect class="cls-5" x="1010.97" y="2367.74" width="70.04" height="26.27"/><rect class="cls-7" x="1010.97" y="2490.32" width="70.04" height="26.27"/><rect class="cls-7" x="1010.97" y="2551.6" width="70.04" height="26.27"/><rect class="cls-5" x="1010.97" y="2429.03" width="70.04" height="26.27"/><line class="cls-4" x1="836.15" y1="2114.49" x2="907.25" y2="2114.49"/><line class="cls-4" x1="883.47" y1="2224.42" x2="933.75" y2="2174.14"/><line class="cls-4" x1="883.47" y1="2004.56" x2="933.75" y2="2054.84"/><path class="cls-3" d="M1931.41,1998.23c-59.3-32.8-102.7-10.34-123.64,55.52-20.53,64.58,26.5,92.1,8.34,236.93s-3.52,230.37,79.49,276.29c94.88,52.48,187,26,318.43-71.67s406.74-7.33,478.9-137.79c52.48-94.88-5.56-158-100.43-210.43-166-91.84-397.41,74.45-492.28,22S2038.14,2057.27,1931.41,1998.23Z"/><path class="cls-6" d="M2083.19,2627.38a38,38,0,1,1-3.17-15.22A38,38,0,0,1,2083.19,2627.38Z"/><rect class="cls-7" x="1967.21" y="2566.01" width="132.55" height="49.71"/><rect class="cls-7" x="1967.21" y="2309.19" width="231.96" height="66.27"/><rect class="cls-7" x="1967.21" y="2209.78" width="231.96" height="66.27"/><line class="cls-4" x1="1842.02" y1="2081.69" x2="1892.3" y2="2131.97"/><line class="cls-4" x1="1797.75" y1="2192.88" x2="1868.85" y2="2192.88"/><line class="cls-4" x1="1953.21" y1="2037.42" x2="1953.21" y2="2108.52"/><rect class="cls-3" x="1863.53" y="2666.56" width="762.01" height="25.86"/><rect class="cls-7" x="1967.21" y="2408.61" width="231.96" height="66.27"/><polygon class="cls-6" points="2526.41 2309.19 2508.65 2375.47 2308.91 2375.47 2326.66 2309.19 2526.41 2309.19"/><polygon class="cls-6" points="2499.78 2408.61 2482.02 2474.88 2282.28 2474.88 2300.03 2408.61 2499.78 2408.61"/><polygon class="cls-6" points="2553.65 2209.78 2535.61 2276.05 2335.54 2276.05 2353.3 2209.78 2553.65 2209.78"/><polygon class="cls-5" points="2099.76 2566.01 2193.39 2566.01 2180.07 2615.72 2099.76 2615.72 2099.76 2566.01"/><polygon class="cls-5" points="2099.76 2408.61 2235.56 2408.61 2217.8 2474.88 2099.76 2474.88 2099.76 2408.61"/><polygon class="cls-5" points="2099.76 2309.19 2262.2 2309.19 2244.44 2375.47 2099.76 2375.47 2099.76 2309.19"/><polygon class="cls-5" points="2288.84 2209.78 2271.07 2276.05 2099.76 2276.05 2099.76 2209.78 2288.84 2209.78"/><path class="cls-5" d="M2257.86,2566l-13.32,49.71H2217.6c-.4-1.22-.85-2.39-1.34-3.55a38.06,38.06,0,0,0-33.48-22.79l-1.4,0a38,38,0,0,0-34.87,22.82,36.55,36.55,0,0,0-1.34,3.55h-45.41V2566Z"/><polygon class="cls-5" points="2300.03 2408.61 2282.28 2474.88 2099.76 2474.88 2099.76 2408.61 2300.03 2408.61"/><polygon class="cls-5" points="2326.66 2309.19 2308.91 2375.47 2099.76 2375.47 2099.76 2309.19 2326.66 2309.19"/><polygon class="cls-5" points="2353.3 2209.78 2335.55 2276.05 2099.76 2276.05 2099.76 2209.78 2353.3 2209.78"/><path class="cls-7" d="M2219.43,2627.38a38,38,0,1,1-74.26-11.66,36.55,36.55,0,0,1,1.34-3.55,38,38,0,0,1,34.87-22.82l1.4,0a38.06,38.06,0,0,1,33.48,22.79c.5,1.16.95,2.34,1.34,3.55A38.13,38.13,0,0,1,2219.43,2627.38Z"/><path class="cls-6" d="M2502.8,2397.64l-38.08,142.11c-.34,1.27-.71,2.53-1.1,3.78l18.4-68.66,17.76-66.27,2.95-11Z"/><path class="cls-7" d="M2648,2053.63l-.2,49.71-173-.2h-.2a52.87,52.87,0,0,0-50.94,38.93l-18.09,67.72h-51.51l21.64-80.78a102.65,102.65,0,0,1,98.9-75.58h.4Z"/><path class="cls-7" d="M2389.72,2627.38a37.82,37.82,0,1,1-.19-3.89v0C2389.65,2624.79,2389.72,2626.08,2389.72,2627.38Z"/><path class="cls-6" d="M2676.39,2053.63l-.2,49.71-53.31-.2h-.2a52.87,52.87,0,0,0-50.94,38.93l-18.09,67.72-13.21,48.52-4.83,17.76-8.65,31.77-.17,0-.38,1.42-17.76,66.27-5.93,22.16-2.95,11L2482,2474.88l-18.4,68.66a102.64,102.64,0,0,1-97.91,72.18H2244.53l13.32-49.71h107.85a52.88,52.88,0,0,0,50.19-36.42l14.65-54.7,17.76-66.27,8.88-33.14,17.76-66.27,8.88-33.14,17.76-66.27h.55l21.64-80.78a102.65,102.65,0,0,1,98.9-75.58h.41Z"/></g></g></g></svg>