<svg xmlns="http://www.w3.org/2000/svg" viewBox="0 0 3399.46 9424.69"><defs><style>.cls-1{isolation:isolate;}.cls-2{fill:#fcf6f4;}.cls-3{fill:#f8e4db;}.cls-4,.cls-9{fill:none;stroke-linecap:round;}.cls-4{stroke:#3b98ff;stroke-linejoin:round;stroke-width:25px;}.cls-5{fill:#f68b68;}.cls-10,.cls-6{fill:#cb441f;}.cls-7{fill:#f05929;}.cls-8{opacity:0.4;}.cls-9{stroke:#cb441f;stroke-miterlimit:10;stroke-width:75px;}.cls-10{opacity:0.56;mix-blend-mode:multiply;}.cls-11{fill:#3b98ff;}</style></defs><title>Asset 15</title><g class="cls-1"><g id="Layer_2" data-name="Layer 2"><g id="Layer_1-2" data-name="Layer 1"><rect class="cls-2" width="3399.46" height="9424.69"/><path class="cls-3" d="M2052.21,4930.4c-47.62-33.6-86.84-18.47-110.92,35.87-23.61,53.29,14,81.23-15.09,203.36s-24.61,196.64,42.06,243.68c76.2,53.77,157.43,39.75,279-31.42s348.46,31.87,422.39-72.9c53.77-76.2,10.06-135.57-66.14-189.34-133.35-94.09-346.77,26.39-423-27.37S2137.94,4990.89,2052.21,4930.4Z"/><line class="cls-4" x1="2025.42" y1="5051.15" x2="2075.69" y2="5101.43"/><line class="cls-4" x1="1981.15" y1="5162.34" x2="2052.25" y2="5162.34"/><line class="cls-4" x1="2136.61" y1="5006.88" x2="2136.61" y2="5077.98"/><rect class="cls-3" x="1903.14" y="5577.48" width="762.01" height="25.86"/><rect class="cls-5" x="2199.75" y="4856.34" width="162" height="51.96"/><path class="cls-5" d="M2303.33,4908.3,2138.88,5522a222.71,222.71,0,0,1-66.43-100.74,220.15,220.15,0,0,1-10.3-66.73c0-86.93,37.88-149.6,122.82-198.54,14.11-8.13,35.61-14.06,35.61-44.85V4908.3Z"/><path class="cls-5" d="M2499.35,5354.57a220.15,220.15,0,0,1-10.3,66.73,223.37,223.37,0,0,1-96.86,123,220.2,220.2,0,0,1-111.44,32.08c-1.69,0-3.38-.07-5.06-.13l-2.51-.11c-1.09,0-2.18-.11-3.26-.18l-1.76-.12-2.49-.19c-1.41-.12-2.82-.25-4.22-.39l-.75-.08c-.65-.06-1.3-.14-1.95-.21l-1.65-.2-2.16-.27-2.16-.3-1.93-.28-2.08-.32q-3.45-.55-6.85-1.22l-1.81-.36-2.26-.47-2.11-.46c-.7-.15-1.4-.31-2.09-.48-1.69-.39-3.36-.8-5-1.24-.59-.14-1.18-.3-1.76-.46l-2.26-.61-.24-.07c-.73-.2-1.46-.41-2.18-.63q-1.52-.43-3-.9c-.68-.2-1.36-.42-2-.63-1.35-.43-2.7-.88-4-1.33l-2-.69-1.12-.39-1.59-.58c-.76-.27-1.51-.55-2.26-.84q-6.9-2.61-13.57-5.65l-1.7-.77-2.39-1.14-2.15-1c-1.17-.58-2.33-1.16-3.49-1.76l-2.26-1.18c-1.07-.57-2.13-1.14-3.18-1.73l-1.53-.85c-.76-.42-1.52-.86-2.28-1.3l-1.52-.88c-.35-.21-.7-.41-1-.63-1.06-.63-2.12-1.27-3.16-1.91s-1.85-1.15-2.76-1.74-1.64-1.05-2.46-1.6c-1.1-.71-2.2-1.45-3.29-2.2l-1.22-.84c-1-.68-2-1.38-3-2.08q-1.24-.88-2.46-1.8c-1.13-.82-2.24-1.66-3.35-2.52-.4-.3-.81-.61-1.21-.93l-.09-.07c-.92-.72-1.84-1.44-2.75-2.18s-1.87-1.51-2.79-2.28h0l-1.28-1.08c-.78-.65-1.55-1.31-2.32-2a222.71,222.71,0,0,1-66.43-100.74,220.15,220.15,0,0,1-10.3-66.73c0-1.08,0-2.16,0-3.23.93-85.26,38.92-147,122.8-195.31,14.11-8.13,35.61-14.06,35.61-44.85V4908.3h120.34v202.88c0,30.79,21.5,36.72,35.61,44.85q8.12,4.68,15.66,9.53v185.78h107.14C2499.34,5352.42,2499.35,5353.49,2499.35,5354.57Z"/><rect class="cls-6" x="2220.58" y="4910.34" width="120.34" height="36"/><path class="cls-7" d="M2499.35,5354.57a220.15,220.15,0,0,1-10.3,66.73,223.37,223.37,0,0,1-96.86,123,220.2,220.2,0,0,1-111.44,32.08c-1.69,0-3.38-.07-5.06-.13l-2.51-.11c-1.09,0-2.18-.11-3.26-.18l-1.76-.12-2.49-.19c-1.41-.12-2.82-.25-4.22-.39l-.75-.08c-.65-.06-1.3-.14-1.95-.21l-1.65-.2-2.16-.27-2.16-.3-1.93-.28-2.08-.32q-3.45-.55-6.85-1.22l-1.81-.36-2.26-.47-2.11-.46c-.7-.15-1.4-.31-2.09-.48-1.69-.39-3.36-.8-5-1.24-.59-.14-1.18-.3-1.76-.46l-2.26-.61-.24-.07c-.73-.2-1.46-.41-2.18-.63q-1.52-.43-3-.9c-.68-.2-1.36-.42-2-.63-1.35-.43-2.7-.88-4-1.33l-2-.69-1.12-.39-1.59-.58c-.76-.27-1.51-.55-2.26-.84q-6.9-2.61-13.57-5.65l-1.7-.77-2.39-1.14-2.15-1c-1.17-.58-2.33-1.16-3.49-1.76l-2.26-1.18c-1.07-.57-2.13-1.14-3.18-1.73l-1.53-.85c-.76-.42-1.52-.86-2.28-1.3l-1.52-.88c-.35-.21-.7-.41-1-.63-1.06-.63-2.12-1.27-3.16-1.91s-1.85-1.15-2.76-1.74-1.64-1.05-2.46-1.6c-1.1-.71-2.2-1.45-3.29-2.2l-1.22-.84c-1-.68-2-1.38-3-2.08q-1.24-.88-2.46-1.8c-1.13-.82-2.24-1.66-3.35-2.52-.4-.3-.81-.61-1.21-.93l-.09-.07c-.92-.72-1.84-1.44-2.75-2.18s-1.87-1.51-2.79-2.28h0l-1.28-1.08c-.78-.65-1.55-1.31-2.32-2a222.71,222.71,0,0,1-66.43-100.74,220.15,220.15,0,0,1-10.3-66.73c0-1.08,0-2.16,0-3.23h437.16C2499.34,5352.42,2499.35,5353.49,2499.35,5354.57Z"/><rect class="cls-7" x="2152.15" y="5246.34" width="99" height="27"/><rect class="cls-5" x="2152.15" y="5372.34" width="99" height="27"/><rect class="cls-5" x="2152.15" y="5435.34" width="99" height="27"/><path class="cls-7" d="M2499.33,5351.34H2392.19V5165.56a302.08,302.08,0,0,1,33.24,24.52C2475.36,5232.73,2498.61,5284.89,2499.33,5351.34Z"/><path class="cls-6" d="M2499.35,5354.57a220.15,220.15,0,0,1-10.3,66.73,223.37,223.37,0,0,1-96.86,123V5351.34h107.14C2499.34,5352.42,2499.35,5353.49,2499.35,5354.57Z"/><rect class="cls-7" x="2152.15" y="5309.34" width="99" height="27"/><path class="cls-3" d="M767.63,4909.16c-59.3-32.8-102.7-10.34-123.64,55.52-20.53,64.58,26.5,92.1,8.34,236.93S648.8,5432,731.82,5477.9c94.88,52.48,187,26,318.43-71.67s406.74-7.33,478.9-137.79c52.48-94.88-5.56-158-100.43-210.43-166-91.84-397.41,74.45-492.28,22S874.36,4968.2,767.63,4909.16Z"/><path class="cls-6" d="M919.41,5538.3a38,38,0,1,1-3.17-15.22A38,38,0,0,1,919.41,5538.3Z"/><rect class="cls-5" x="803.43" y="5476.93" width="132.55" height="49.71"/><rect class="cls-5" x="803.43" y="5220.12" width="231.96" height="66.27"/><rect class="cls-5" x="803.43" y="5120.7" width="231.96" height="66.27"/><line class="cls-4" x1="678.24" y1="4992.61" x2="728.52" y2="5042.89"/><line class="cls-4" x1="633.97" y1="5103.81" x2="705.07" y2="5103.81"/><line class="cls-4" x1="789.43" y1="4948.34" x2="789.43" y2="5019.45"/><rect class="cls-3" x="699.75" y="5577.48" width="762.01" height="25.86"/><rect class="cls-5" x="803.43" y="5319.53" width="231.96" height="66.27"/><polygon class="cls-6" points="1362.63 5220.12 1344.87 5286.39 1145.13 5286.39 1162.88 5220.12 1362.63 5220.12"/><polygon class="cls-6" points="1336 5319.53 1318.24 5385.8 1118.49 5385.8 1136.25 5319.53 1336 5319.53"/><polygon class="cls-6" points="1389.87 5120.7 1371.83 5186.98 1171.76 5186.98 1189.52 5120.7 1389.87 5120.7"/><polygon class="cls-7" points="935.98 5476.93 1029.6 5476.93 1016.28 5526.64 935.98 5526.64 935.98 5476.93"/><polygon class="cls-7" points="935.98 5319.53 1071.78 5319.53 1054.02 5385.8 935.98 5385.8 935.98 5319.53"/><polygon class="cls-7" points="935.98 5220.12 1098.42 5220.12 1080.66 5286.39 935.98 5286.39 935.98 5220.12"/><polygon class="cls-7" points="1125.06 5120.7 1107.29 5186.98 935.98 5186.98 935.98 5120.7 1125.06 5120.7"/><path class="cls-7" d="M1094.07,5476.93l-13.32,49.71h-26.93c-.4-1.22-.85-2.39-1.34-3.55a38.06,38.06,0,0,0-33.48-22.79l-1.4,0a38,38,0,0,0-34.87,22.82,36.55,36.55,0,0,0-1.34,3.55H936v-49.71Z"/><polygon class="cls-7" points="1136.25 5319.53 1118.49 5385.8 935.98 5385.8 935.98 5319.53 1136.25 5319.53"/><polygon class="cls-7" points="1162.88 5220.12 1145.13 5286.39 935.98 5286.39 935.98 5220.12 1162.88 5220.12"/><polygon class="cls-7" points="1189.52 5120.7 1171.76 5186.98 935.98 5186.98 935.98 5120.7 1189.52 5120.7"/><path class="cls-5" d="M1055.64,5538.3a38,38,0,1,1-74.26-11.66,36.55,36.55,0,0,1,1.34-3.55,38,38,0,0,1,34.87-22.82l1.4,0a38.06,38.06,0,0,1,33.48,22.79c.5,1.16.95,2.34,1.34,3.55A38.13,38.13,0,0,1,1055.64,5538.3Z"/><path class="cls-6" d="M1339,5308.56l-38.08,142.11c-.34,1.27-.71,2.53-1.1,3.78l18.4-68.66,17.76-66.27,2.95-11Z"/><path class="cls-5" d="M1484.25,4964.56l-.2,49.71-173-.2h-.2a52.87,52.87,0,0,0-50.94,38.93l-18.09,67.72h-51.51l21.64-80.78a102.65,102.65,0,0,1,98.9-75.58h.4Z"/><path class="cls-5" d="M1225.93,5538.3a37.82,37.82,0,1,1-.19-3.89v0C1225.87,5535.71,1225.93,5537,1225.93,5538.3Z"/><path class="cls-6" d="M1512.61,4964.56l-.2,49.71-53.31-.2h-.2A52.87,52.87,0,0,0,1408,5053l-18.09,67.72-13.21,48.52-4.83,17.76-8.65,31.77-.17,0-.38,1.42-17.76,66.27-5.93,22.16-2.95,11-17.76,66.27-18.4,68.66a102.64,102.64,0,0,1-97.91,72.18H1080.75l13.32-49.71h107.85a52.88,52.88,0,0,0,50.19-36.42l14.65-54.7,17.76-66.27,8.88-33.14,17.76-66.27,8.88-33.14,17.76-66.27h.55l21.64-80.78a102.65,102.65,0,0,1,98.9-75.58h.41Z"/><path class="cls-3" d="M1905.31,8434.62c-.76,89.6,102.18,130.06,250.9,137.15s418.1-43.88,500-190.58,17.23-296.92-44.78-362.82c-66.38-70.55-182-55.86-225.82-12.4-66.07,65.54-49.39,241.33-104,300.73C2189.6,8406.86,1906.87,8252.19,1905.31,8434.62Z"/><line class="cls-4" x1="2129.06" y1="7950.68" x2="2179.34" y2="8000.95"/><line class="cls-4" x1="2084.8" y1="8061.87" x2="2155.9" y2="8061.87"/><line class="cls-4" x1="2240.26" y1="7906.41" x2="2240.26" y2="7977.51"/><rect class="cls-3" x="1971.3" y="8708.11" width="762.01" height="25.86"/><polygon class="cls-6" points="2622.15 8593.43 2603.78 8611.43 2550.38 8558.03 2547.9 8560.51 2498.3 8610.11 2481.33 8593.14 2530.93 8543.55 2538.38 8536.08 2538.38 8364.98 2562.38 8364.98 2562.38 8531.15 2573.37 8542.6 2622.15 8593.43"/><rect class="cls-5" x="2538.38" y="8355.97" width="24" height="90"/><rect class="cls-5" x="2416.97" y="8619.8" width="85.35" height="24.01" transform="translate(-5383.2 4267.43) rotate(-45)"/><polygon class="cls-5" points="2679.95 8653.67 2662.81 8670.47 2603.78 8611.43 2622.15 8593.43 2679.95 8653.67"/><circle class="cls-7" cx="2550.38" cy="8367.82" r="50.92"/><circle class="cls-7" cx="2550.14" cy="8542.13" r="47.84"/><circle class="cls-7" cx="2433.14" cy="8659.13" r="47.84"/><circle class="cls-7" cx="2670.46" cy="8659.13" r="47.84"/><circle class="cls-5" cx="2560.8" cy="8528.39" r="13.5"/><circle class="cls-5" cx="2677.8" cy="8645.39" r="13.5"/><circle class="cls-5" cx="2443.8" cy="8645.39" r="13.5"/><circle class="cls-5" cx="2560.8" cy="8348.39" r="13.5"/><polygon class="cls-6" points="2301.84 8137.12 2319.84 8155.49 2266.44 8208.89 2268.92 8211.37 2318.52 8260.97 2301.54 8277.94 2251.95 8228.34 2244.49 8220.89 2073.38 8220.89 2073.38 8196.89 2239.55 8196.89 2251.01 8185.9 2301.84 8137.12"/><rect class="cls-5" x="2064.38" y="8196.89" width="90" height="24"/><rect class="cls-5" x="2328.2" y="8256.96" width="24.01" height="85.35" transform="translate(-5183.3 4085.69) rotate(-45)"/><polygon class="cls-5" points="2362.07 8079.32 2378.87 8096.46 2319.84 8155.49 2301.84 8137.12 2362.07 8079.32"/><circle class="cls-7" cx="2076.22" cy="8208.89" r="50.92"/><circle class="cls-7" cx="2250.54" cy="8209.13" r="47.84"/><circle class="cls-7" cx="2367.54" cy="8326.13" r="47.84"/><circle class="cls-7" cx="2367.54" cy="8088.82" r="47.84"/><circle class="cls-5" cx="2236.8" cy="8198.47" r="13.5"/><circle class="cls-5" cx="2056.8" cy="8198.47" r="13.5"/><circle class="cls-5" cx="2353.8" cy="8081.47" r="13.5"/><circle class="cls-5" cx="2353.8" cy="8315.47" r="13.5"/><polyline class="cls-6" points="2236.36 8659.37 2238.84 8656.89 2288.44 8607.29 2271.46 8590.32 2221.87 8639.92 2214.41 8647.37 2043.3 8647.37 2043.3 8671.37 2209.47 8671.37 2220.93 8682.36"/><rect class="cls-6" x="2267.45" y="8556.63" width="85.35" height="24.01" transform="translate(-5382.31 4143.19) rotate(-45)"/><polyline class="cls-6" points="2221.87 8405.92 2214.41 8413.37 2043.3 8413.37 2043.3 8437.37 2209.47 8437.37 2220.93 8448.36 2271.76 8497.14 2289.76 8478.77 2236.36 8425.37 2238.84 8422.89"/><polygon class="cls-6" points="2331.99 8554.94 2348.79 8537.8 2289.76 8478.77 2271.76 8497.14 2331.99 8554.94"/><circle class="cls-7" cx="2337.46" cy="8545.45" r="47.84"/><circle class="cls-5" cx="2323.72" cy="8552.79" r="13.5"/><polyline class="cls-6" points="2012.24 8659.37 2009.76 8656.89 1960.16 8607.29 1977.14 8590.32 2026.73 8639.92 2034.19 8647.37 2205.3 8647.37 2205.3 8671.37 2039.13 8671.37 2027.67 8682.36"/><polyline class="cls-6" points="2026.73 8405.92 2034.19 8413.37 2205.3 8413.37 2205.3 8437.37 2039.13 8437.37 2027.67 8448.36 1976.84 8497.14 1958.84 8478.77 2012.24 8425.37 2009.76 8422.89"/><rect class="cls-6" x="1926.47" y="8525.96" width="24.01" height="85.35" transform="translate(-5491.17 3880.41) rotate(-45)"/><circle class="cls-7" cx="2028.14" cy="8659.13" r="47.84"/><circle class="cls-5" cx="2041.88" cy="8669.79" r="13.5"/><polygon class="cls-6" points="1916.61 8554.94 1899.81 8537.8 1958.84 8478.77 1976.84 8497.14 1916.61 8554.94"/><circle class="cls-7" cx="2028.14" cy="8425.13" r="47.84"/><circle class="cls-7" cx="1911.14" cy="8545.45" r="47.84"/><circle class="cls-5" cx="2041.88" cy="8435.79" r="13.5"/><circle class="cls-5" cx="1924.88" cy="8552.79" r="13.5"/><circle class="cls-7" cx="2220.46" cy="8659.13" r="47.84"/><circle class="cls-5" cx="2206.72" cy="8669.79" r="13.5"/><circle class="cls-7" cx="2220.46" cy="8425.13" r="47.84"/><circle class="cls-5" cx="2206.72" cy="8435.79" r="13.5"/><path class="cls-3" d="M681.66,8501.64c-83.06-83.06-15.1-151,7.55-173.68s158.58-7.55,211.44-60.41,75.51-196.33,135.92-256.74,105.72-60.41,158.58,0,68,271.85,135.92,339.81,120.82,30.21,181.23,90.62,15.1,135.92-30.21,181.23c-75.51,75.51-219,0-377.57,0S787.38,8607.36,681.66,8501.64Z"/><path class="cls-7" d="M1154.51,8125.83v108H1014.67a67.13,67.13,0,0,0-13.16,1.29V8125.83Z"/><path class="cls-7" d="M1136.51,8233.83V8266h-135v-30.85a67.13,67.13,0,0,1,13.16-1.29Z"/><rect class="cls-3" x="725.5" y="8708.11" width="762.01" height="25.86"/><line class="cls-4" x1="785.51" y1="8330.9" x2="856.62" y2="8330.9"/><line class="cls-4" x1="832.84" y1="8440.83" x2="883.11" y2="8390.55"/><line class="cls-4" x1="832.84" y1="8220.97" x2="883.11" y2="8271.25"/><path class="cls-5" d="M1014.67,8233.83h70.84V8401h-138V8301a67.09,67.09,0,0,1,67.16-67.16Z"/><rect class="cls-7" x="1085.51" y="8233.83" width="30" height="167.14"/><path class="cls-7" d="M1349.17,7985.94l-11.32,27.78-151.95-61.91a51.11,51.11,0,0,0-70.39,47.33v126.69h-30V7999.14A81.11,81.11,0,0,1,1197.22,7924Z"/><rect class="cls-5" x="1115.51" y="8233.83" width="39" height="167.14"/><path class="cls-7" d="M1154.51,8401v309.86H993.56a46.05,46.05,0,0,1-46.05-46V8401h138v81h30v-81Z"/><rect class="cls-6" x="1085.51" y="8400.97" width="30" height="81"/><rect class="cls-5" x="987.51" y="8418.97" width="63" height="27"/><rect class="cls-5" x="987.51" y="8481.97" width="63" height="27"/><rect class="cls-5" x="987.51" y="8544.97" width="63" height="27"/><rect class="cls-7" x="987.51" y="8355.97" width="63" height="27"/><path class="cls-6" d="M1190.51,8125.83v109.29a67.13,67.13,0,0,0-13.16-1.29h-22.84v-108Z"/><path class="cls-7" d="M1244.51,8301v100h-90V8233.83h22.84a67.09,67.09,0,0,1,67.16,67.16Z"/><path class="cls-6" d="M1244.51,8401v263.81a46.05,46.05,0,0,1-46.05,46h-43.95V8401Z"/><path class="cls-3" d="M2680,7563.16c68.94,19.33,108.11-14.31,113.65-87.11,5.43-71.39-49.62-88.27-66.12-241.61s-52.33-237.75-148.85-264.8c-110.31-30.92-198.57,18.69-310,151s-416.47,106.33-459,258c-30.92,110.31,44.08,161.07,154.38,192,193,54.11,390.57-173.08,500.88-142.15S2555.87,7528.38,2680,7563.16Z"/><rect class="cls-3" x="1929.78" y="7663.89" width="762.01" height="25.86"/><line class="cls-4" x1="1812.99" y1="7246.38" x2="1884.1" y2="7246.38"/><line class="cls-4" x1="1860.31" y1="7356.31" x2="1910.59" y2="7306.03"/><line class="cls-4" x1="1860.31" y1="7136.45" x2="1910.59" y2="7186.73"/><path class="cls-5" d="M2571.06,7151.15v444.62c0,18.59-16,33.67-35.67,33.67h-140.3a36.73,36.73,0,0,1-24.26-9,32.77,32.77,0,0,1-11.41-24.68V7151.15c0-18.38,15.61-33.32,35-33.66h16.83v8.5a16.17,16.17,0,0,0,16.18,16.17h75.65a16.17,16.17,0,0,0,16.17-16.17v-8.5h16.15C2555.09,7117.48,2571.06,7132.56,2571.06,7151.15Z"/><path class="cls-5" d="M2537.86,7117.55v511.8h-.11l-1.09.05-1.27,0h-140.3a36.73,36.73,0,0,1-24.26-9,32.76,32.76,0,0,1-11.41-24.68V7151.14c0-18.38,15.61-33.31,35-33.66h16.83v.08h108v-.08h16.15l1.27,0,1.09.05Z"/><path class="cls-5" d="M2411.24,7117.48v.15h-16.83v-.14h16.83Z"/><path class="cls-7" d="M2433.27,7148.84h63.92a22,22,0,0,0,22-22c0-.28,0-.56,0-.84v-1a7.48,7.48,0,0,1,7.47-7.48h8.68l1.27,0,1.09.05h.11v-31.44H2374.3c-25.53,0-46.24,19.55-46.24,43.65v487.35a42.4,42.4,0,0,0,14.79,32,47.59,47.59,0,0,0,31.45,11.66h163.56v-31.41h-.11l-1.09.05-1.27,0h-140.3a36.73,36.73,0,0,1-24.26-9,32.76,32.76,0,0,1-11.41-24.68V7151.14c0-18.38,15.61-33.31,35-33.66h9.36a7.47,7.47,0,0,1,7.47,7.48v1.86A22,22,0,0,0,2433.27,7148.84Z"/><rect class="cls-5" x="2359.42" y="7183.55" width="0.15" height="31.51"/><path class="cls-7" d="M2053.85,7086.12c-25.54,0-46.25,19.54-46.25,43.64v487.36a42.46,42.46,0,0,0,14.79,32,47.64,47.64,0,0,0,31.46,11.65h154V7086.12Z"/><rect class="cls-5" x="2038.94" y="7165.76" width="168.96" height="378"/><circle class="cls-5" cx="2145.4" cy="7603.82" r="29.94"/><rect class="cls-7" x="2207.9" y="7165.76" width="42.73" height="378"/><path class="cls-6" d="M2282,7129.76v487.36c0,24.1-20.71,43.64-46.25,43.64H2207.9v-117h42.73v-378H2207.9v-79.64h27.82C2261.26,7086.12,2282,7105.66,2282,7129.76Z"/><path class="cls-6" d="M2602.42,7129.76v487.35c0,24.11-20.7,43.65-46.24,43.65h-18.32v-31.41l.27,0c.47,0,.93-.07,1.39-.12l.15,0c.47,0,.95-.12,1.42-.19l.61-.1,1.26-.23c.56-.12,1.11-.24,1.65-.38s1.05-.27,1.57-.43l.18-.05c.49-.15,1-.31,1.45-.48s.79-.28,1.18-.44l.57-.22,1.3-.56h0c.49-.22,1-.46,1.47-.71l0,0c1-.49,1.88-1,2.78-1.59l.16-.1c.36-.24.72-.47,1.08-.72l.32-.22,1-.75c.55-.42,1.09-.85,1.62-1.31.31-.26.61-.52.9-.8s.63-.59.94-.89a35,35,0,0,0,2.76-3.09c.13-.16.27-.33.39-.5.54-.7,1.05-1.43,1.54-2.18.26-.41.51-.82.76-1.24.41-.71.8-1.44,1.16-2.19.11-.21.21-.43.31-.64s.24-.53.35-.8.17-.41.26-.61l.33-.87.27-.75a31,31,0,0,0,.88-3.07c.06-.26.12-.52.17-.79.16-.72.28-1.46.38-2.21,0-.18.05-.37.07-.55s0-.29,0-.44c0-.42.08-.83.1-1.25,0-.11,0-.21,0-.32s0-.48,0-.72,0-.67,0-1V7151.14c0-.34,0-.68,0-1s0-.48,0-.72,0-.21,0-.32c0-.42-.06-.84-.1-1.25,0-.14,0-.29,0-.44s0-.36-.07-.55c-.1-.75-.22-1.48-.38-2.21,0-.27-.11-.53-.17-.79a32.09,32.09,0,0,0-2.68-7.3c-.12-.25-.25-.49-.38-.73l-.45-.81c-.53-.91-1.1-1.8-1.71-2.65-.17-.24-.34-.47-.52-.7l-.51-.66c-.16-.22-.34-.43-.52-.64s-.35-.42-.54-.63c-.36-.42-.73-.82-1.12-1.22-.19-.2-.38-.4-.58-.59s-.65-.63-1-.94-.57-.51-.86-.76l-.09-.07-.55-.46a34.19,34.19,0,0,0-3.6-2.59c-.41-.26-.82-.51-1.24-.75l-.11-.06c-.43-.24-.86-.48-1.29-.7-.88-.46-1.79-.88-2.73-1.27l-.49-.2-.28-.11c-.39-.16-.78-.3-1.18-.44s-1-.33-1.45-.48l-.18-.05c-.52-.16-1-.3-1.57-.43s-1.09-.26-1.65-.38l-1.26-.23-.61-.1c-.47-.07-1-.14-1.42-.19l-.15,0c-.46,0-.92-.09-1.39-.12l-.27,0v-31.44h18.32C2581.72,7086.11,2602.42,7105.66,2602.42,7129.76Z"/><path class="cls-7" d="M2571.06,7151.14v444.62c0,.34,0,.68,0,1s0,.48,0,.72,0,.21,0,.32c0,.42-.06.83-.1,1.25,0,.15,0,.29,0,.44s0,.37-.07.55c-.1.75-.22,1.49-.38,2.21,0,.27-.11.53-.17.79a31,31,0,0,1-.88,3.07l-.27.75-.33.87c-.09.2-.17.41-.26.61s-.23.54-.35.8-.2.43-.31.64c-.36.75-.75,1.48-1.16,2.19-.25.42-.5.83-.76,1.24-.49.75-1,1.48-1.54,2.18-.12.17-.26.34-.39.5a35,35,0,0,1-2.76,3.09c-.31.3-.62.6-.94.89s-.59.54-.9.8c-.53.46-1.07.89-1.62,1.31l-1,.75-.32.22c-.36.25-.72.48-1.08.72l-.16.1c-.9.57-1.82,1.1-2.78,1.59l0,0c-.48.24-1,.48-1.47.71h0l-1.3.56-.57.22-1.18.44c-.48.17-1,.33-1.45.48l-.18.05c-.52.15-1,.3-1.57.43s-1.09.26-1.65.38l-1.26.23-.61.1c-.47.07-1,.14-1.42.19l-.15,0c-.46.05-.92.09-1.39.12l-.27,0v-511.8l.27,0c.47,0,.93.07,1.39.12l.15,0c.47.05.95.12,1.42.19l.61.1,1.26.23c.56.12,1.11.24,1.65.38s1.05.28,1.57.43l.18.05c.49.15,1,.31,1.45.48l1.18.44.28.11.49.2c.94.39,1.85.81,2.73,1.27.43.22.86.46,1.29.7l.11.06c.42.24.83.49,1.24.75a34.19,34.19,0,0,1,3.6,2.59l.55.46.09.07c.29.25.58.5.86.76s.66.62,1,.94.39.39.58.59c.39.4.76.8,1.12,1.22.19.21.36.42.54.63s.35.43.52.64l.51.66c.18.23.35.46.52.7.61.85,1.18,1.74,1.71,2.65l.45.81c.13.24.26.48.38.73a32.09,32.09,0,0,1,2.68,7.3c.06.26.12.52.17.79.16.73.28,1.46.38,2.21,0,.19.05.37.07.55s0,.3,0,.44c0,.41.08.83.1,1.25,0,.11,0,.21,0,.32s0,.48,0,.72S2571.06,7150.8,2571.06,7151.14Z"/><path class="cls-3" d="M708.91,7310.25c0,148.14,77.59,299.8,299.8,299.8S1431.95,7402,1431.95,7186.8c0-162.24-63.49-229.26-158.72-229.26-134,0-77.59,345.65-162.24,345.65s-84.65-239.84-239.84-239.84S708.91,7225.6,708.91,7310.25Z"/><line class="cls-4" x1="741.26" y1="7061.54" x2="791.54" y2="7111.82"/><line class="cls-4" x1="696.99" y1="7172.74" x2="768.09" y2="7172.74"/><line class="cls-4" x1="852.45" y1="7017.28" x2="852.45" y2="7088.38"/><rect class="cls-3" x="723.94" y="7663.89" width="762.01" height="25.86"/><circle class="cls-7" cx="1120.93" cy="7413.65" r="48.2"/><circle class="cls-6" cx="1198.05" cy="7326.9" r="28.92"/><path class="cls-5" d="M1130.57,7272.37a22.55,22.55,0,0,1-6.62,16L1092,7320.29a22.59,22.59,0,1,1-31.94-31.94L1092,7256.4a22.59,22.59,0,0,1,38.56,16Z"/><path class="cls-7" d="M1369.1,7216.82q-8.64-4.63-17.79-8.88l.29-3q1.46-15.49,1.47-29.74c0-57.86-18-99.67-51.93-119.26-21.5-12.41-47.52-14.82-76.46-7.56-24.22,6.06-50.48,18.91-77.81,38.36q-8.16,5.8-16.29,12.27-8.13-6.47-16.29-12.27c-32.56-23.15-63.58-37-91.46-41.1-23.5-3.5-44.76-.14-62.82,10.29-39.49,22.8-57.41,75.71-50.47,149l.29,3q-9.14,4.24-17.79,8.88c-66.16,35.41-102.59,83.19-102.59,134.54S825.89,7450.5,892,7485.9q5.53,3,11.27,5.76,3.23,1.59,6.52,3.12c-.1,1-.19,2-.29,3-6.94,73.29,11,126.21,50.47,149,13.48,7.79,28.74,11.63,45.39,11.63,18.35,0,38.38-4.68,59.55-13.94a278.63,278.63,0,0,0,49.33-28.49q8.16-5.8,16.29-12.27,8.13,6.47,16.29,12.27c39.51,28.1,76.77,42.43,108.88,42.43a96.18,96.18,0,0,0,23.88-2.9,84.69,84.69,0,0,0,21.51-8.73c39.49-22.8,57.41-75.72,50.47-149-.1-1-.19-2-.29-3q9.14-4.24,17.79-8.88c66.16-35.41,102.59-83.2,102.59-134.54S1435.26,7252.23,1369.1,7216.82Zm-206.73-108.26c18.93-13.45,37-23.37,54.11-29.64h0a141.83,141.83,0,0,1,17.48-5.22,99.09,99.09,0,0,1,21.8-2.6,70.4,70.4,0,0,1,17,2,57.78,57.78,0,0,1,15,6c14.52,8.39,25.15,23.15,31.57,43.87,6.3,20.26,8.34,45.15,6.08,74-37.6-14.34-80-24.3-124.84-29.37q-3-3.52-6-7a529.53,529.53,0,0,0-43.15-44C1155.06,7113.87,1158.72,7111.16,1162.37,7108.56ZM963.91,7385.44c7.69,15.93,16.11,31.83,25.2,47.59a715.93,715.93,0,0,0,49.28,74.4c-35.91-5.76-69.61-14.89-99.7-27.11C943.25,7450.22,951.81,7418.17,963.91,7385.44Zm-7.82-90.75a461.06,461.06,0,0,1-17.4-72.29,408.88,408.88,0,0,1,40.52-14,495.78,495.78,0,0,1,59.19-13.14,715.77,715.77,0,0,0-49.28,74.39q-13.64,23.65-25.2,47.6Q959.72,7305.92,956.09,7294.69Zm56.22,124.95a691.12,691.12,0,0,1-34.63-68.28,691.28,691.28,0,0,1,34.63-68.29,672.45,672.45,0,0,1,64-92.52c17.75-1.61,35.9-2.43,54.29-2.43s36.54.82,54.29,2.43q.66.79,1.29,1.57a673.06,673.06,0,0,1,62.69,90.94,691.28,691.28,0,0,1,34.63,68.29,691.12,691.12,0,0,1-34.63,68.28,672.57,672.57,0,0,1-64,92.53c-17.75,1.61-35.9,2.43-54.29,2.43q-15.44,0-30.62-.77-11.94-.59-23.67-1.66A672.57,672.57,0,0,1,1012.31,7419.64ZM1272,7433c9.09-15.75,17.51-31.66,25.2-47.59,12.1,32.73,20.66,64.78,25.22,94.88-30.1,12.22-63.79,21.35-99.7,27.11A715.93,715.93,0,0,0,1272,7433Zm0-163.34a715.77,715.77,0,0,0-49.28-74.39c35.91,5.76,69.61,14.89,99.7,27.11-4.56,30.11-13.12,62.15-25.22,94.88Q1285.7,7293.39,1272,7269.68ZM1130.57,7134q15.87,14.07,31.36,30.59-15.55-.79-31.36-.78t-31.36.78Q1114.65,7148.07,1130.57,7134Zm-188.75-11c6.43-20.72,17.05-35.48,31.57-43.87,9.25-5.34,20-8,32-8a88.14,88.14,0,0,1,10.45.64,108.6,108.6,0,0,1,11.34,2c22,5,46.07,16.7,71.6,34.85,3.65,2.6,7.32,5.31,11,8.13a538.09,538.09,0,0,0-49.15,51,553,553,0,0,0-74,13.38,462.37,462.37,0,0,0-50.8,16C933.48,7168.15,935.53,7143.26,941.82,7123Zm-31.94,344.15c-1.44-.74-2.86-1.48-4.27-2.24-57.64-30.86-89.39-71.18-89.39-113.54s31.75-82.68,89.39-113.54c2.56-1.37,5.16-2.72,7.8-4,5.77,33.87,16.13,69.77,30.55,106.2q2.23,5.67,4.62,11.36c-16.84,40.31-28.8,80.19-35.17,117.57C912.22,7468.34,911,7467.74,909.89,7467.14Zm188.89,127a287,287,0,0,1-24.56,15.72c-16.5,9.37-32.25,15.78-47,19.12-21.16,4.8-39.25,3-53.78-5.41s-25.15-23.15-31.57-43.87c-6.3-20.26-8.34-45.14-6.08-74,37.6,14.34,80,24.3,124.84,29.37q12.77,15,26,28.63,11.44,11.78,23.15,22.34Q1104.26,7590.26,1098.77,7594.16Zm31.8-25.4c-10.58-9.37-21.07-19.6-31.36-30.58q15.55.79,31.36.78t31.36-.78C1151.64,7549.16,1141.16,7559.39,1130.57,7568.76Zm188.75,11c-6.43,20.72-17.05,35.48-31.57,43.87s-32.61,10.2-53.78,5.41c-22-5-46.07-16.7-71.6-34.84q-5.49-3.9-11-8.13a537,537,0,0,0,49.16-51c44.89-5.07,87.24-15,124.84-29.37C1327.67,7534.58,1325.62,7559.46,1319.32,7579.73Zm36.21-114.83q-3.84,2.06-7.79,4c-6.37-37.38-18.34-77.25-35.17-117.57,16.84-40.31,28.79-80.19,35.16-117.57,2.63,1.31,5.24,2.66,7.8,4,57.64,30.86,89.39,71.17,89.39,113.54S1413.18,7434,1355.53,7464.9Z"/><path class="cls-5" d="M1022.83,7045.64l-7,26.1a88.14,88.14,0,0,0-10.45-.64c-12,0-22.73,2.68-32,8-14.52,8.39-25.15,23.15-31.57,43.87-6.3,20.26-8.34,45.15-6.08,74a462.37,462.37,0,0,1,50.8-16l-7.34,27.4a408.88,408.88,0,0,0-40.52,14,461.06,461.06,0,0,0,17.4,72.29L944,7340c-14.42-36.44-24.77-72.34-30.55-106.2-2.63,1.31-5.24,2.66-7.8,4-57.64,30.86-89.39,71.17-89.39,113.54S848,7434,905.61,7464.9c1.41.76,2.84,1.5,4.27,2.24l-6.58,24.53q-5.74-2.8-11.27-5.76c-66.16-35.41-102.59-83.2-102.59-134.54s36.44-99.14,102.59-134.54q8.64-4.63,17.79-8.88l-.29-3c-6.94-73.29,11-126.2,50.47-149C978.07,7045.5,999.33,7042.14,1022.83,7045.64Z"/><path class="cls-6" d="M1369.1,7216.82q-8.64-4.63-17.79-8.88l.29-3q1.46-15.49,1.47-29.74c0-57.86-18-99.67-51.93-119.26-21.5-12.41-47.52-14.82-76.46-7.56l-8.18,30.55a141.83,141.83,0,0,1,17.48-5.22,99.09,99.09,0,0,1,21.8-2.6,70.4,70.4,0,0,1,17,2,57.78,57.78,0,0,1,15,6c14.52,8.39,25.15,23.15,31.57,43.87,6.3,20.26,8.34,45.15,6.08,74-37.6-14.34-80-24.3-124.84-29.37q-3-3.52-6-7l-8.42,31.42a673.06,673.06,0,0,1,62.69,90.94,691.28,691.28,0,0,1,34.63,68.29,691.12,691.12,0,0,1-34.63,68.28,672.57,672.57,0,0,1-64,92.53c-17.75,1.61-35.9,2.43-54.29,2.43q-15.44,0-30.62-.77l-13.36,49.87q11.44,11.78,23.15,22.34-5.48,4.23-11,8.13a287,287,0,0,1-24.56,15.72l-9.26,34.58a278.63,278.63,0,0,0,49.33-28.49q8.16-5.8,16.29-12.27,8.13,6.47,16.29,12.27c39.51,28.1,76.77,42.43,108.88,42.43a96.18,96.18,0,0,0,23.88-2.9,84.69,84.69,0,0,0,21.51-8.73c39.49-22.8,57.41-75.72,50.47-149-.1-1-.19-2-.29-3q9.14-4.24,17.79-8.88c66.16-35.41,102.59-83.2,102.59-134.54S1435.26,7252.23,1369.1,7216.82ZM1272,7269.68a715.77,715.77,0,0,0-49.28-74.39c35.91,5.76,69.61,14.89,99.7,27.11-4.56,30.11-13.12,62.15-25.22,94.88Q1285.7,7293.39,1272,7269.68Zm0,163.34c9.09-15.75,17.51-31.66,25.2-47.59,12.1,32.73,20.66,64.78,25.22,94.88-30.1,12.22-63.79,21.35-99.7,27.11A715.93,715.93,0,0,0,1272,7433Zm-141.46,135.73c-10.58-9.37-21.07-19.6-31.36-30.58q15.55.79,31.36.78t31.36-.78C1151.64,7549.16,1141.16,7559.39,1130.57,7568.76Zm188.75,11c-6.43,20.72-17.05,35.48-31.57,43.87s-32.61,10.2-53.78,5.41c-22-5-46.07-16.7-71.6-34.84q-5.49-3.9-11-8.13a537,537,0,0,0,49.16-51c44.89-5.07,87.24-15,124.84-29.37C1327.67,7534.58,1325.62,7559.46,1319.32,7579.73Zm36.21-114.83q-3.84,2.06-7.79,4c-6.37-37.38-18.34-77.25-35.17-117.57,16.84-40.31,28.79-80.19,35.16-117.57,2.63,1.31,5.24,2.66,7.8,4,57.64,30.86,89.39,71.17,89.39,113.54S1413.18,7434,1355.53,7464.9Z"/><path class="cls-3" d="M2004,6104.45c-95.67,108.59-136.74,269.88,26.15,413.39s444.66,120.8,583.6-36.92c104.78-118.93,101.52-209.06,31.71-270.56-98.25-86.56-280.11,203.27-342.16,148.6s92.84-230.48-20.92-330.71S2058.69,6042.4,2004,6104.45Z"/><line class="cls-4" x1="2509.74" y1="6039.47" x2="2459.46" y2="6089.75"/><line class="cls-4" x1="2398.54" y1="5995.2" x2="2398.54" y2="6066.31"/><line class="cls-4" x1="2554" y1="6150.66" x2="2482.9" y2="6150.66"/><rect class="cls-3" x="1901.07" y="6646.81" width="762.01" height="25.86"/><path class="cls-5" d="M2320.53,6150.66v180H2054v-77.14l-42.55-76.2a17.92,17.92,0,0,1,15.65-26.66Z"/><path class="cls-7" d="M2320.53,6330.66v312.59a105,105,0,0,1-15.35,1.12H2159.31A105.34,105.34,0,0,1,2054,6539V6330.66Z"/><rect class="cls-7" x="2104.53" y="6285.66" width="99" height="27"/><rect class="cls-5" x="2104.53" y="6411.66" width="99" height="27"/><rect class="cls-5" x="2104.53" y="6474.66" width="99" height="27"/><rect class="cls-5" x="2104.53" y="6348.66" width="99" height="27"/><path class="cls-7" d="M2410.53,6176.16v154.5h-90v-180H2385A25.5,25.5,0,0,1,2410.53,6176.16Z"/><path class="cls-6" d="M2410.53,6330.66V6539a105.34,105.34,0,0,1-90,104.22V6330.66Z"/><path class="cls-3" d="M605.47,6430.94c-.85,99.59,113.58,144.58,278.9,152.45s464.75-48.78,555.85-211.85,19.16-330.05-49.78-403.31c-73.79-78.42-202.32-62.09-251-13.78-73.44,72.85-54.9,268.26-115.6,334.29C921.49,6400.08,607.2,6228.16,605.47,6430.94Z"/><line class="cls-4" x1="933.39" y1="5906.15" x2="983.67" y2="5956.43"/><line class="cls-4" x1="889.13" y1="6017.34" x2="960.23" y2="6017.34"/><line class="cls-4" x1="1044.59" y1="5861.88" x2="1044.59" y2="5932.98"/><rect class="cls-3" x="742.7" y="6646.81" width="762.01" height="25.86"/><g class="cls-8"><path class="cls-9" d="M874.33,6403.93"/></g><g class="cls-8"><path class="cls-9" d="M884.13,6360.9"/></g><path class="cls-7" d="M1306.28,6040.07v608H1054.36V6359.36a133.08,133.08,0,0,1-113.77,64.15c-1.08,0-2.18,0-3.26,0a133,133,0,0,1-116.58-75.21,33.86,33.86,0,0,1,61-29.44,65.7,65.7,0,0,0,41.16,34.48,64.78,64.78,0,0,0,14.43,2.39c1.08.06,2.17.09,3.26.09a65.29,65.29,0,0,0,16.1-128.56h0a65.19,65.19,0,0,0-16.09-2c-1.09,0-2.18,0-3.26.09a65.72,65.72,0,0,0-55.58,36.88,33.86,33.86,0,0,1-61-29.43,133,133,0,0,1,116.58-75.21c1.08,0,2.18,0,3.26,0a132.82,132.82,0,0,1,113.77,64.15V6040.07a33.86,33.86,0,1,1,67.72,0v144.8h24.38v-144.8a33.86,33.86,0,1,1,67.72,0v144.8h24.38v-144.8a33.86,33.86,0,1,1,67.72,0Z"/><path class="cls-5" d="M922.91,6353.31l-17.54,65.47a133,133,0,0,1-84.61-70.52,33.86,33.86,0,0,1,61-29.44A65.7,65.7,0,0,0,922.91,6353.31Z"/><path class="cls-5" d="M974.22,6161.82l-17.53,65.42h0a65.19,65.19,0,0,0-16.09-2c-1.09,0-2.18,0-3.26.09a65.72,65.72,0,0,0-55.58,36.88,33.86,33.86,0,0,1-61-29.43,133,133,0,0,1,116.58-75.21c1.08,0,2.18,0,3.26,0A132.82,132.82,0,0,1,974.22,6161.82Z"/><polygon class="cls-10" points="1306.29 6047.74 1306.29 6648.07 1145.43 6648.07 1306.29 6047.74"/><path class="cls-3" d="M1371.63,1367.06c108.08,6.53,130.52-175.51,38.5-286.88-86.21-104.33,170.7-230-9.85-318-115.65-56.37-186.42,186.39-260.65,218.06s-310,12.24-337,98.34c-29.58,94.38-15.68,151,74.24,188,53.41,22,121.08-6.79,197.64-2.16C1207.46,1272.49,1209.52,1357.26,1371.63,1367.06Z"/><path class="cls-11" d="M933.65,942.64h-71.1a12.5,12.5,0,1,1,0-25h71.1a12.5,12.5,0,0,1,0,25Z"/><path class="cls-11" d="M909.87,1052.57a12.5,12.5,0,0,1-8.84-21.34L951.31,981A12.5,12.5,0,1,1,969,998.63l-50.28,50.28A12.46,12.46,0,0,1,909.87,1052.57Z"/><path class="cls-11" d="M960.15,883a12.46,12.46,0,0,1-8.84-3.66L901,829.05a12.5,12.5,0,0,1,17.68-17.68L969,861.65A12.5,12.5,0,0,1,960.15,883Z"/><rect class="cls-3" x="756.62" y="1483.85" width="762.01" height="25.86"/><path class="cls-7" d="M1286.15,951.36l-17.38,17.38a74.72,74.72,0,0,0-20.67,39.19l-12.42,66.23a83.15,83.15,0,0,1-38.93,56l-8.69,5.21-9.4,5.64a143.58,143.58,0,0,0-48.22,47.69l-27.61,44.85a113.17,113.17,0,0,0-15.54,42.29l-23.62,153.58a67.46,67.46,0,0,1-27.3,44.37,45.2,45.2,0,0,1-70.65-28.19l-8.83-45.65-19.17-99A58.69,58.69,0,0,1,995.33,1231h33.54a16.3,16.3,0,0,1,0,32.59H995.33q-1,0-2,.08a26.08,26.08,0,0,0-23.65,31l6.44,33.27,21.56,111.4a12.6,12.6,0,0,0,19.7,7.86,34.68,34.68,0,0,0,14-22.81l23.63-153.58a145.34,145.34,0,0,1,20-54.41l27.6-44.86a176.32,176.32,0,0,1,57.52-57.52c.56-.36,1.12-.69,1.69-1l18.09-10.85a50.61,50.61,0,0,0,23.67-34l12.41-66.22a107.13,107.13,0,0,1,29.66-56.23l17.38-17.38a29.18,29.18,0,0,0,0-41.22l-11.76-11.76A103,103,0,0,1,1221,802.06V707a16.3,16.3,0,1,1,32.59,0v95a70.59,70.59,0,0,0,20.81,50.23l11.76,11.76A61.8,61.8,0,0,1,1286.15,951.36Z"/><path class="cls-7" d="M1382.69,1300.88l-28,144.66a45.17,45.17,0,0,1-70.65,28.19,67.46,67.46,0,0,1-27.3-44.37l-23.63-153.58a113.37,113.37,0,0,0-15.54-42.29l-27.6-44.85a143.49,143.49,0,0,0-29.76-34.5,141.94,141.94,0,0,0-18.47-13.19l-9.39-5.64-8.69-5.21a83.19,83.19,0,0,1-38.94-56l-12.41-66.23a74.73,74.73,0,0,0-20.68-39.19l-17.38-17.38a61.82,61.82,0,0,1,0-87.31L1046,852.29a70.58,70.58,0,0,0,20.8-50.23V707a16.3,16.3,0,0,1,32.59,0v95a103,103,0,0,1-30.34,73.28L1057.3,887.1a29.18,29.18,0,0,0,0,41.22l17.38,17.38c1,1,2.06,2.1,3.06,3.18a106.94,106.94,0,0,1,26.6,53l12.42,66.22a50.55,50.55,0,0,0,23.67,34l18.08,10.85,1.7,1a176.21,176.21,0,0,1,57.52,57.52L1242,1211l3.36,5.46a145.49,145.49,0,0,1,20,54.41L1289,1424.41a34.68,34.68,0,0,0,14,22.81,12.6,12.6,0,0,0,19.7-7.86l28-144.66a26.09,26.09,0,0,0-25.62-31h-33.53a16.3,16.3,0,0,1,0-32.59h33.53a58.69,58.69,0,0,1,57.62,69.83Z"/><path class="cls-6" d="M1382.69,1300.88l-28,144.66a45.17,45.17,0,0,1-70.65,28.19,67.46,67.46,0,0,1-27.3-44.37l-23.63-153.58a113.21,113.21,0,0,0-4-17L1242,1211l3.36,5.46a145.49,145.49,0,0,1,20,54.41L1289,1424.41a34.68,34.68,0,0,0,14,22.81,12.6,12.6,0,0,0,19.7-7.86l28-144.66a26.09,26.09,0,0,0-25.62-31h-33.53a16.3,16.3,0,0,1,0-32.59h33.53a58.69,58.69,0,0,1,57.62,69.83Z"/><path class="cls-5" d="M1002.13,1231l-8.75,32.67a26.08,26.08,0,0,0-23.65,31l6.44,33.27-19.27,71.93-19.17-99A58.69,58.69,0,0,1,995.33,1231Z"/><path class="cls-5" d="M1057.3,887.1a29.18,29.18,0,0,0,0,41.22l17.38,17.38c1,1,2.06,2.1,3.06,3.18l-11.08,41.36a74.67,74.67,0,0,0-15-21.49l-17.38-17.38a61.82,61.82,0,0,1,0-87.31L1046,852.29a70.58,70.58,0,0,0,20.8-50.23V707a16.3,16.3,0,0,1,32.59,0v95a103,103,0,0,1-30.34,73.28Z"/><path class="cls-3" d="M1887.87,1150.21c-.22,122.31,84.93,247.69,329.42,248.13s466-171,466.33-348.62c.24-134-69.51-189.42-174.29-189.61-147.47-.27-85.89,285.24-179,285.07S2237.51,947,2066.75,946.68,1888,1080.32,1887.87,1150.21Z"/><rect class="cls-3" x="1943.33" y="1483.85" width="762.01" height="25.86"/><path class="cls-5" d="M2370.33,811.6v39h-48.62v626.24a78.34,78.34,0,0,1-29.75,5.85q-3,0-6-.23c-1.33-.1-2.65-.23-4-.4s-2.61-.37-3.89-.6a78.38,78.38,0,0,1-64.47-75.44c0-.67,0-1.35,0-2v-.31l.92-223,.08-18.89V811.6Z"/><rect class="cls-5" x="2180.38" y="764.78" width="226.3" height="46.82"/><rect class="cls-6" x="2214.26" y="811.6" width="156.07" height="39.02"/><line class="cls-4" x1="2043.66" y1="931.79" x2="2114.76" y2="931.79"/><line class="cls-4" x1="2090.98" y1="1041.71" x2="2141.26" y2="991.44"/><line class="cls-4" x1="2090.98" y1="821.86" x2="2141.26" y2="872.13"/><path class="cls-7" d="M2321.71,1014.71v462.13a77.95,77.95,0,0,1-29.75,5.87q-3,0-6-.23c-1.33-.1-2.65-.24-4-.4s-2.61-.37-3.89-.6a78.63,78.63,0,0,1-64.47-75.44c0-.67,0-1.35,0-2v-.31l.92-223,.08-20.17V1014.71Z"/><path class="cls-6" d="M2370.33,1014.71v389.34a78.7,78.7,0,0,1-48.62,72.81V1014.71Z"/><rect class="cls-7" x="2321.71" y="850.62" width="48.62" height="164.09"/><rect class="cls-5" x="2214.58" y="1113.18" width="71.16" height="26.26"/><polygon class="cls-5" points="2285.74 1174.46 2285.74 1200.73 2214.5 1200.73 2214.58 1180.56 2214.58 1174.46 2285.74 1174.46"/><rect class="cls-5" x="2214.58" y="1051.89" width="71.16" height="26.27"/><path class="cls-3" d="M1148,3983.47c-104.51-40-216.28,65.84-208.11,214.94,7.65,139.68-254.54,92.37-187,270.51,41.5,109.47,269.44-40.58,350.61-21.35s248.89,166.82,340.61,125.07c93.05-42.36,106.28-147.25,53.69-201.95-41.39-43-104.86-68.68-165.68-119.52C1226.52,4162.89,1244.41,4020.39,1148,3983.47Z"/><line class="cls-4" x1="738.89" y1="4244.75" x2="789.16" y2="4295.03"/><line class="cls-4" x1="694.62" y1="4355.95" x2="765.72" y2="4355.95"/><line class="cls-4" x1="850.08" y1="4200.49" x2="850.08" y2="4271.59"/><rect class="cls-3" x="772.72" y="4614.48" width="762.01" height="25.86"/><path class="cls-5" d="M1308.44,4413.61a16.79,16.79,0,0,1-16-22l84.9-259.93H1157.07a67.2,67.2,0,0,0-64.11,48q-.16.53-.35,1.06l-70.48,191.7a16.78,16.78,0,1,1-31.5-11.58l70.3-191.2a100.39,100.39,0,0,1,96.15-71.51h231.28l20.23-61.93a67.83,67.83,0,0,1,64.91-48.82h56.33a50.76,50.76,0,0,1,48.61,65.4l-6.63,26.48c-.08.31-.16.62-.26.93-4.65,14.87-15.08,28.26-29.37,37.72a82.43,82.43,0,0,1-44.91,13.79h-84.56L1324.39,4402A16.79,16.79,0,0,1,1308.44,4413.61Zm115.22-315.49h73.6c18.32,0,37.1-12.33,42.12-27.56l6.61-26.38c.08-.31.16-.62.26-.93a17.2,17.2,0,0,0-16.42-22.33h-56.33a34.14,34.14,0,0,0-32.72,24.74c-.06.22-.13.43-.19.64Z"/><path class="cls-6" d="M1333.26,4375l-2.73,9.51-3.38,11.74-6.74,23.48-3.37,11.74-3.37,11.74-6.74,23.48-3.37,11.74-11.71,40.82-14.4,50.18a59,59,0,0,1-56.74,42.75h-90.78V4339.55h176.59A27.81,27.81,0,0,1,1333.26,4375Z"/><path class="cls-7" d="M1208.93,4397.92V4532a80.23,80.23,0,0,1-79,80.22h-1.25a80.25,80.25,0,0,1-80.25-80.24v-5.63c0-29.18-15.77-52.83-35.22-52.83S978,4497.16,978,4526.34V4532a80.23,80.23,0,0,1-73.92,80c-2.09.17-4.2.25-6.33.25A80.16,80.16,0,0,1,817.5,4532V4397.92a58.38,58.38,0,0,1,58.37-58.37h274.69a58.39,58.39,0,0,1,58.37,58.37Z"/><path class="cls-5" d="M946.18,4339.55l-72.11,269.12A80.28,80.28,0,0,1,817.5,4532V4397.92a58.38,58.38,0,0,1,58.37-58.37Z"/><rect class="cls-5" x="1072.78" y="4408.83" width="70.44" height="23.48" transform="translate(-3448.71 4346.69) rotate(-75)"/><rect class="cls-5" x="1117.53" y="4433.35" width="70.44" height="23.48" transform="translate(-3439.23 4408.08) rotate(-75)"/><path class="cls-3" d="M2027.7,3967.62c-51.93-36.64-94.69-20.14-120.94,39.12-25.75,58.11,15.29,88.57-16.45,221.74s-26.84,214.41,45.86,265.71c83.09,58.63,171.66,43.34,304.2-34.26s380,34.75,460.57-79.49c58.63-83.09,11-147.83-72.12-206.45-145.4-102.6-378.11,28.78-461.2-29.85S2121.17,4033.58,2027.7,3967.62Z"/><path class="cls-6" d="M2451.28,4082.34V4569.7c0,24.1-20.71,43.65-46.24,43.65H2152.16a47.6,47.6,0,0,1-31.45-11.66,42.43,42.43,0,0,1-14.79-32V4082.34c0-24.1,20.71-43.65,46.24-43.65H2405C2430.57,4038.7,2451.28,4058.24,2451.28,4082.34Z"/><rect class="cls-3" x="1866.28" y="4614.48" width="762.01" height="25.86"/><line class="cls-4" x1="1902.28" y1="4192.27" x2="1973.38" y2="4192.27"/><line class="cls-4" x1="1949.6" y1="4302.2" x2="1999.88" y2="4251.92"/><line class="cls-4" x1="1949.6" y1="4082.34" x2="1999.88" y2="4132.62"/><path class="cls-7" d="M2401.62,4082.34V4569.7c0,24.1-20.71,43.65-46.24,43.65H2102.5a47.6,47.6,0,0,1-31.45-11.66,42.43,42.43,0,0,1-14.79-32V4082.34c0-24.1,20.71-43.65,46.24-43.65h252.88C2380.92,4038.7,2401.62,4058.24,2401.62,4082.34Z"/><circle class="cls-5" cx="2134.59" cy="4338.99" r="31.65" transform="translate(-2442.92 2780.25) rotate(-45)"/><circle class="cls-5" cx="2323.29" cy="4338.99" r="31.65" transform="translate(-2387.66 2913.68) rotate(-45)"/><circle class="cls-5" cx="2228.94" cy="4338.99" r="31.65" transform="translate(-2415.29 2846.96) rotate(-45)"/><circle class="cls-5" cx="2134.59" cy="4435.51" r="31.65" transform="translate(-2511.17 2808.51) rotate(-45)"/><circle class="cls-5" cx="2323.29" cy="4435.51" r="31.65" transform="translate(-2455.9 2941.95) rotate(-45)"/><circle class="cls-5" cx="2228.94" cy="4435.51" r="31.65" transform="translate(-2483.54 2875.23) rotate(-45)"/><circle class="cls-5" cx="2134.59" cy="4532.02" r="31.65" transform="translate(-2579.42 2836.78) rotate(-45)"/><circle class="cls-5" cx="2323.29" cy="4532.02" r="31.65" transform="translate(-2524.15 2970.21) rotate(-45)"/><circle class="cls-5" cx="2228.94" cy="4532.02" r="31.65" transform="translate(-2551.78 2903.5) rotate(-45)"/><rect class="cls-5" x="2102.94" y="4098.65" width="252" height="90"/><polygon class="cls-6" points="2354.94 4098.65 2354.94 4188.65 2276.38 4188.65 2300.5 4098.65 2354.94 4098.65"/><path class="cls-3" d="M1899.34,3353.26c-80.52-80.52-14.64-146.4,7.32-168.36s153.72-7.32,205-58.56,73.2-190.32,131.76-248.89,102.48-58.56,153.72,0S2463,3141,2528.88,3206.85s117.12,29.28,175.68,87.84,14.64,131.76-29.28,175.68c-73.2,73.2-212.29,0-366,0S2001.82,3455.74,1899.34,3353.26Z"/><line class="cls-4" x1="1992.23" y1="3027.06" x2="2042.5" y2="3077.34"/><line class="cls-4" x1="1947.96" y1="3138.26" x2="2019.06" y2="3138.26"/><line class="cls-4" x1="2103.42" y1="2982.79" x2="2103.42" y2="3053.9"/><rect class="cls-3" x="1872.41" y="3570.26" width="762.01" height="25.86"/><path class="cls-5" d="M2517.42,3327.26c0,122.36-90.42,223.59-208.1,240.51a245,245,0,0,1-34.9,2.49c-134.21,0-243-108.79-243-243s108.79-243,243-243a243,243,0,0,1,243,243Z"/><path class="cls-7" d="M2414.58,3174.94l-41.14,153.53a33.34,33.34,0,0,0-14.79,8.61l-47.41,47.41a33.52,33.52,0,0,0,32.15,56.14l-23.76,88.67a207.2,207.2,0,0,1-45.21,5c-114.32,0-207-92.68-207-207s92.68-207,207-207A206.22,206.22,0,0,1,2414.58,3174.94Z"/><rect class="cls-5" x="2229.42" y="3199.23" width="90" height="45" rx="22.5" ry="22.5"/><circle class="cls-5" cx="2202.42" cy="3354.26" r="54"/><path class="cls-6" d="M2481.42,3327.26c0,98.79-69.21,181.42-161.79,202l23.76-88.67a33.35,33.35,0,0,0,15.26-8.73l47.41-47.41a33.52,33.52,0,0,0-32.62-56l41.14-153.53A206.43,206.43,0,0,1,2481.42,3327.26Z"/><path class="cls-7" d="M2517.42,3327.26c0,122.36-90.42,223.59-208.1,240.51l10.31-38.47c92.58-20.62,161.79-103.25,161.79-202a206.44,206.44,0,0,0-66.84-152.32l10.31-38.5A242.55,242.55,0,0,1,2517.42,3327.26Z"/><path class="cls-5" d="M2373.44,3328.47l-30.05,112.16a33.52,33.52,0,0,1-32.15-56.14l47.41-47.41A33.34,33.34,0,0,1,2373.44,3328.47Z"/><path class="cls-7" d="M2415.88,3360.78a33.46,33.46,0,0,1-9.82,23.71l-47.41,47.41a33.35,33.35,0,0,1-15.26,8.73l30.05-112.16a33.52,33.52,0,0,1,42.44,32.31Z"/><path class="cls-3" d="M651.63,3345.49c-.94,110.3,125.79,160.12,308.88,168.84s514.71-54,615.6-234.62S1597.33,2914.18,1521,2833c-81.72-86.85-224.07-68.77-278-15.26-81.34,80.68-60.8,297.09-128,370.23C1001.61,3311.31,653.54,3120.91,651.63,3345.49Z"/><rect class="cls-6" x="1104.92" y="3435.28" width="154.2" height="40.58"/><rect class="cls-6" x="1259.12" y="3435.28" width="32.46" height="40.58"/><rect class="cls-3" x="816.62" y="3570.26" width="762.01" height="25.86"/><path class="cls-6" d="M1259.12,3475.86h32.46v29.83a62.77,62.77,0,0,1-62.77,62.77H991.29V3536h234a33.78,33.78,0,0,0,33.78-33.78Z"/><path class="cls-5" d="M1104.92,3475.86h154.2v26.36a33.78,33.78,0,0,1-33.78,33.78h-154.2a33.78,33.78,0,0,0,33.78-33.78Z"/><rect class="cls-7" x="958.83" y="3536" width="194.78" height="32.46"/><line class="cls-4" x1="722.9" y1="2884.38" x2="773.17" y2="2934.66"/><line class="cls-4" x1="678.63" y1="2995.58" x2="749.73" y2="2995.58"/><line class="cls-4" x1="834.09" y1="2840.12" x2="834.09" y2="2911.22"/><path class="cls-7" d="M1475.35,3034.87v353c0,28-24.08,50.75-53.77,50.75H858.4a55.35,55.35,0,0,1-36.57-13.55,49.34,49.34,0,0,1-17.2-37.2v-353c0-28,24.08-50.75,53.77-50.75h563.18C1451.27,2984.12,1475.35,3006.84,1475.35,3034.87Z"/><path class="cls-6" d="M1526.94,3019.59v383.54c0,19.59-16.84,35.48-37.59,35.48h-67.78c29.7,0,53.77-22.72,53.77-50.75v-353c0-28-24.08-50.75-53.77-50.75h67.78C1510.11,2984.12,1526.94,3000,1526.94,3019.59Z"/><rect class="cls-5" x="851.92" y="3032.81" width="576.13" height="337.54"/><circle class="cls-5" cx="1139.99" cy="3402.82" r="16.23"/><path class="cls-3" d="M1141.15,2516c133.06-19.59,165.65-183,203.48-233.87,40.12-54,226-157.88,209.67-268.76C1542.16,1931,1464.91,1868,1354,1884.28s-154.9,102.1-243.61,115.16-165-43.68-242.65-32.25S709.61,2047.11,721,2124.73c16.32,110.88,143.61,138.54,184.62,176.74C958.17,2350.38,1030.27,2532.36,1141.15,2516Z"/><rect class="cls-3" x="765.02" y="2553.18" width="762.01" height="25.86"/><polygon class="cls-5" points="1153.76 1880.92 1153.76 2359.42 955.46 2359.42 1035.95 2130.64 1035.95 1880.92 1153.76 1880.92"/><polygon class="cls-7" points="1272.51 2359.42 1153.76 2359.42 1153.76 1880.92 1192.01 1880.92 1192.01 2130.64 1272.51 2359.42"/><rect class="cls-5" x="1002.07" y="1834.1" width="226.3" height="46.82"/><rect class="cls-6" x="1035.94" y="1880.93" width="156.07" height="39.02"/><path class="cls-6" d="M1280.74,2552h-127V2359.42h118.75l48,136.45A42.17,42.17,0,0,1,1280.74,2552Z"/><path class="cls-7" d="M1153.76,2359.42V2552H947.23a42.17,42.17,0,0,1-39.78-56.17l48-136.45Z"/><rect class="cls-7" x="1040.17" y="2254.36" width="70.04" height="26.27"/><rect class="cls-5" x="1040.17" y="2376.93" width="70.04" height="26.27"/><rect class="cls-5" x="1040.17" y="2438.22" width="70.04" height="26.27"/><rect class="cls-7" x="1040.17" y="2315.64" width="70.04" height="26.27"/><line class="cls-4" x1="865.35" y1="2001.11" x2="936.45" y2="2001.11"/><line class="cls-4" x1="912.67" y1="2111.03" x2="962.95" y2="2060.76"/><line class="cls-4" x1="912.67" y1="1891.18" x2="962.95" y2="1941.46"/><path class="cls-3" d="M2363.08,1886.44c-75.53-61.83-215.82,32.38-228.39,144.16-16.86,149.93-361.17,185.15-237,405.13,89.94,159.39,418.09-67.71,534-35.91s231.77,63.59,285.87-2.5,28.37-150.22-18.84-188.87-125.33-39.52-210.3-109.08S2466.93,1971.46,2363.08,1886.44Z"/><line class="cls-4" x1="1889.64" y1="1948.3" x2="1939.92" y2="1998.58"/><line class="cls-4" x1="1845.37" y1="2059.5" x2="1916.48" y2="2059.5"/><line class="cls-4" x1="2000.83" y1="1904.03" x2="2000.83" y2="1975.14"/><rect class="cls-3" x="1904.83" y="2553.18" width="762.01" height="25.86"/><path class="cls-5" d="M2364.44,2545.1a35.22,35.22,0,0,1-21,6.93h63a35.43,35.43,0,0,0,35.42-34.79c0-.21,0-.43,0-.64V2084a35.44,35.44,0,0,0-35.43-35.43h-63a35.2,35.2,0,0,1,21,6.93,34.59,34.59,0,0,1,4,3.45,35.27,35.27,0,0,1,10.38,25V2516.6c0,.21,0,.43,0,.64A35.35,35.35,0,0,1,2364.44,2545.1Z"/><path class="cls-6" d="M2364.2,2264.6h392.07a0,0,0,0,1,0,0v61.86a0,0,0,0,1,0,0H2364.2a30.93,30.93,0,0,1-30.93-30.93v0A30.93,30.93,0,0,1,2364.2,2264.6Z" transform="translate(4840.3 -249.23) rotate(90)"/><rect class="cls-5" x="2548.7" y="2129.03" width="45" height="180"/><polygon class="cls-5" points="2513.83 2507.03 2544.27 2554.18 2575.7 2507.03 2513.83 2507.03"/><path class="cls-7" d="M2378.83,2084V2516.6c0,.21,0,.43,0,.64A35.44,35.44,0,0,1,2343.4,2552H2054.83V2048.6H2343.4a35.2,35.2,0,0,1,21,6.93,34.58,34.58,0,0,1,4,3.45A35.27,35.27,0,0,1,2378.83,2084Z"/><rect class="cls-5" x="2162.83" y="2141.32" width="171" height="149.71"/><rect class="cls-7" x="2198.83" y="2174.03" width="99" height="27" transform="translate(4496.67 4375.07) rotate(-180)"/><rect class="cls-7" x="2198.83" y="2228.03" width="99" height="27" transform="translate(4496.67 4483.07) rotate(-180)"/><rect class="cls-6" x="2054.83" y="2048.6" width="63" height="503.43"/></g></g></g></svg>